<svg height="512pt" viewBox="-11 0 512 512" width="512pt" xmlns="http://www.w3.org/2000/svg"><path d="m446.671875 406.113281 27.636719-52.722656.019531-.011719c10.125-26.863281 15.671875-55.972656 15.671875-86.378906 0-135.308594-109.691406-245-245-245s-245 109.691406-245 245c0 31.347656 5.894531 61.3125 16.625 88.863281l292.085938 147.753907c56.78125-15.253907 105.410156-50.398438 137.96875-97.5zm0 0" fill="#00c82f"/><path d="m404.710938 178.023438v230.183593h40.507812c11.886719-16.828125 21.707031-35.226562 29.089844-54.816406v-175.367187zm0 0" fill="#27a3ff"/><path d="m441.421875 396.207031v-218.1875h-36.710937v230.1875h40.507812c.488281-.695312.96875-1.394531 1.453125-2.09375-3.160156-2.167969-5.25-5.804687-5.25-9.90625zm0 0" fill="#0080f4"/><path d="m404.710938 179.019531h69.597656v-38.960937c0-3.207032-2.597656-5.808594-5.808594-5.808594h-63.789062zm0 0" fill="#615df9"/><path d="m441.421875 146.25c0-6.601562 5.398437-12 12-12h-48.710937v44.773438h36.710937zm0 0" fill="#3342ae"/><path d="m447.449219 164.992188h-12.054688c-4.613281 0-8.355469-3.742188-8.355469-8.355469 0-4.617188 3.742188-8.359375 8.355469-8.359375h12.054688c4.617187 0 8.355469 3.742187 8.355469 8.359375 0 4.613281-3.742188 8.355469-8.355469 8.355469zm0 0" fill="#aeaeff"/><path d="m332.246094 143.144531v299.941407h67.402344c4.027343 0 7.289062-3.265626 7.289062-7.289063v-292.652344zm0 0" fill="#fecd0a"/><path d="m369.59375 429.335938v-286.191407h-37.347656v299.941407h46.789062c-5.519531-2.132813-9.441406-7.476563-9.441406-13.75zm0 0" fill="#fca60d"/><path d="m406.9375 144.144531v-37.484375c0-4.023437-3.261719-7.289062-7.289062-7.289062h-67.402344v44.773437zm0 0" fill="#615df9"/><path d="m369.59375 113.121094c0-6.273438 3.921875-11.617188 9.441406-13.75h-46.789062v44.773437h37.347656zm0 0" fill="#3342ae"/><path d="m375.617188 130.113281h-12.050782c-4.617187 0-8.355468-3.738281-8.355468-8.355469 0-4.617187 3.738281-8.355468 8.355468-8.355468h12.050782c4.617187 0 8.359374 3.738281 8.359374 8.355468 0 4.617188-3.742187 8.355469-8.359374 8.355469zm0 0" fill="#aeaeff"/><path d="m272.9375 0h-218.753906c-21.222656 0-38.492188 17.269531-38.492188 38.496094v314.894531c34.925782 92.675781 124.410156 158.609375 229.308594 158.609375 22.96875 0 45.195312-3.175781 66.273438-9.085938.101562-1.125.160156-2.261718.160156-3.410156v-461.007812c0-21.226563-17.269532-38.496094-38.496094-38.496094zm0 0" fill="#2b3894"/><path d="m72.867188 441.3125 16.570312 13.589844v-430.039063c-3.148438-2.714843-5.15625-6.71875-5.15625-11.183593 0-6.3125 3.980469-11.542969 9.203125-13.679688h-39.300781c-21.222656 0-38.492188 17.269531-38.492188 38.496094v314.894531c12.582032 33.390625 32.257813 63.304687 57.175782 87.921875zm0 0" fill="#232e7a"/><path d="m272.9375 22.285156h-32.511719c-3.066406 0-5.550781 2.484375-5.550781 5.550782 0 7.351562-6.015625 13.371093-13.371094 13.371093h-115.886718c-7.351563 0-13.371094-6.019531-13.371094-13.371093 0-3.066407-2.484375-5.550782-5.546875-5.550782h-32.511719c-8.953125 0-16.210938 7.257813-16.210938 16.210938v359.554687c9.960938 15.707031 21.667969 30.199219 34.835938 43.214844l35.222656 28.886719c39.097656 26.417968 86.226563 41.847656 136.964844 41.847656 14.117188 0 27.953125-1.195312 41.414062-3.488281 1.726563-2.574219 2.734376-5.671875 2.734376-9.007813 0-16.324218 0-444.273437 0-461.007812 0-8.953125-7.257813-16.210938-16.210938-16.210938zm0 0" fill="#8181fc"/><path d="m92.484375 457.402344v-427.105469c-.148437-.800781-.238281-1.621094-.238281-2.460937 0-3.066407-2.484375-5.550782-5.550782-5.550782h-32.507812c-8.953125 0-16.210938 7.257813-16.210938 16.210938v359.554687c9.972657 15.722657 21.691407 30.226563 34.875 43.25zm0 0" fill="#615df9"/><path d="m72.789062 119.347656v321.898438c10.835938 10.710937 22.65625 20.425781 35.328126 28.976562h217.917968c4.664063 0 8.441406-3.777344 8.441406-8.4375v-342.4375zm0 0" fill="#e6f7fe"/><path d="m114.183594 470.222656v-350.875h-41.394532v321.898438c10.835938 10.710937 22.65625 20.425781 35.328126 28.976562zm0 0" fill="#d5f1fe"/><path d="m334.476562 120.347656v-39.675781c0-4.660156-3.777343-8.4375-8.441406-8.4375h-244.808594c-4.660156 0-8.4375 3.777344-8.4375 8.4375v39.675781zm0 0" fill="#615df9"/><path d="m122.621094 72.234375h-41.394532c-4.660156 0-8.4375 3.777344-8.4375 8.4375v39.675781h41.394532v-39.675781c0-4.660156 3.777344-8.4375 8.4375-8.4375zm0 0" fill="#3342ae"/><path d="m185.914062 427.910156h-22.351562c-6.15625 0-11.144531-4.988281-11.144531-11.140625 0-6.15625 4.988281-11.144531 11.144531-11.144531h22.351562c6.152344 0 11.140626 4.988281 11.140626 11.144531 0 6.152344-4.988282 11.140625-11.140626 11.140625zm0 0" fill="#11dfef"/><path d="m243.703125 427.910156h-22.351563c-6.152343 0-11.140624-4.988281-11.140624-11.140625 0-6.15625 4.988281-11.144531 11.140624-11.144531h22.351563c6.152344 0 11.144531 4.988281 11.144531 11.144531 0 6.152344-4.992187 11.140625-11.144531 11.140625zm0 0" fill="#11dfef"/><path d="m265.015625 225.363281c0 33.902344-27.480469 61.382813-61.382813 61.382813-33.902343 0-61.382812-27.480469-61.382812-61.382813 0-33.898437 27.480469-61.382812 61.382812-61.382812 33.902344 0 61.382813 27.484375 61.382813 61.382812zm0 0" fill="#f948b4"/><path d="m214.25 232.179688c-28.800781-15-18.839844-41.757813-18.839844-41.757813-22.378906-3.507813-11.359375-22.910156-11.132812-23.308594-24.410156 8.109375-42.027344 31.117188-42.027344 58.25 0 33.902344 27.480469 61.382813 61.382812 61.382813 2.699219 0 5.351563-.191406 7.960938-.53125-8.242188-7.445313-15.320312-17.683594-15.320312-28.972656 0-21.222657 17.976562-25.0625 17.976562-25.0625zm0 0" fill="#e00e8b"/><path d="m203.632812 227.734375c-6.65625 0-13.148437.703125-19.410156 2.03125-25.777344 5.476563-29.644531 40.925781-5.582031 51.675781 7.632813 3.410156 16.089844 5.304688 24.992187 5.304688 8.902344 0 17.359376-1.894532 24.992188-5.304688 24.0625-10.75 20.195312-46.199218-5.582031-51.675781-6.261719-1.328125-12.753907-2.03125-19.410157-2.03125zm0 0" fill="#27a3ff"/><path d="m178.640625 281.441406c7.632813 3.410156 16.089844 5.304688 24.992187 5.304688 2.699219 0 5.351563-.195313 7.960938-.53125-8.242188-7.449219-15.320312-17.683594-15.320312-28.972656 0-21.222657 17.980468-25.0625 17.980468-25.0625-2.625-1.367188-4.925781-2.832032-6.941406-4.363282-1.222656-.050781-2.445312-.082031-3.679688-.082031-6.65625 0-13.148437.703125-19.410156 2.03125-25.777344 5.476563-29.644531 40.925781-5.582031 51.675781zm0 0" fill="#0080f4"/><path d="m226.578125 211.84375c0 12.671875-10.273437 22.941406-22.945313 22.941406-12.671874 0-22.945312-10.269531-22.945312-22.941406s10.273438-22.945312 22.945312-22.945312c12.671876 0 22.945313 10.273437 22.945313 22.945312zm0 0" fill="#f9cfa9"/><path d="m203.632812 234.785156c2.003907 0 3.945313-.257812 5.796876-.738281 2.742187-1.417969 4.824218-1.867187 4.824218-1.867187-28.804687-15-18.84375-41.757813-18.84375-41.757813-8.609375 3.308594-14.722656 11.648437-14.722656 21.421875 0 12.671875 10.273438 22.941406 22.945312 22.941406zm0 0" fill="#fbbc8d"/><path d="m132.472656 310.785156h142.316406c2.917969 0 5.28125 2.363282 5.28125 5.277344v18.144531c0 2.914063-2.363281 5.28125-5.28125 5.28125h-142.316406c-2.914062 0-5.277344-2.367187-5.277344-5.28125v-18.144531c0-2.914062 2.363282-5.277344 5.277344-5.277344zm0 0" fill="#11dfef"/><path d="m200.195312 334.207031v-18.144531c0-2.914062 2.363282-5.277344 5.277344-5.277344h-73c-2.914062 0-5.277344 2.363282-5.277344 5.277344v18.144531c0 2.914063 2.363282 5.277344 5.277344 5.277344h73c-2.914062 0-5.277344-2.363281-5.277344-5.277344zm0 0" fill="#0ac6e5"/><path d="m131.472656 310.785156h42.285156v28.703125h-42.285156c-2.914062 0-5.277344-2.367187-5.277344-5.28125v-18.144531c0-2.914062 2.363282-5.277344 5.277344-5.277344zm0 0" fill="#615df9"/><path d="m99.78125 104.644531c-4.625 0-8.355469-3.761719-8.355469-8.355469 0-4 2.882813-7.472656 6.71875-8.191406 5.070313-1.015625 9.996094 2.847656 9.996094 8.191406 0 4.648438-3.800781 8.355469-8.359375 8.355469zm0 0" fill="#f948b4"/><path d="m122.636719 104.644531c-4.601563 0-8.359375-3.753906-8.359375-8.355469 0-4.160156 3.058594-7.503906 6.730468-8.191406 4.980469-1.003906 9.984376 2.765625 9.984376 8.191406 0 4.644532-3.789063 8.355469-8.355469 8.355469zm0 0" fill="#fecd0a"/><path d="m145.5 104.644531c-4.632812 0-8.355469-3.765625-8.355469-8.355469 0-4.054687 2.945313-7.484374 6.71875-8.191406 5.023438-1.007812 9.996094 2.816406 9.996094 8.191406 0 4.648438-3.800781 8.355469-8.359375 8.355469zm0 0" fill="#39df74"/><path d="m305.125 104.648438h-16.511719c-4.617187 0-8.355469-3.742188-8.355469-8.355469 0-4.617188 3.742188-8.359375 8.355469-8.359375h16.511719c4.613281 0 8.355469 3.742187 8.355469 8.359375 0 4.613281-3.742188 8.355469-8.355469 8.355469zm0 0" fill="#aeaeff"/><path d="m257.765625 104.648438h-83.589844c-4.617187 0-8.359375-3.742188-8.359375-8.355469 0-4.617188 3.742188-8.359375 8.359375-8.359375h83.589844c4.617187 0 8.359375 3.742187 8.359375 8.359375 0 4.613281-3.742188 8.355469-8.359375 8.355469zm0 0" fill="#aeaeff"/><path d="m230.101562 96.289062c0-4.613281 3.742188-8.355468 8.359376-8.355468h-64.285157c-4.617187 0-8.359375 3.742187-8.359375 8.355468 0 4.617188 3.742188 8.359376 8.359375 8.359376h64.285157c-4.617188 0-8.359376-3.742188-8.359376-8.359376zm0 0" fill="#8181fc"/><path d="m132.472656 353.835938h142.316406c2.917969 0 5.28125 2.363281 5.28125 5.28125v18.144531c0 2.914062-2.363281 5.277343-5.28125 5.277343h-142.316406c-2.914062 0-5.277344-2.363281-5.277344-5.277343v-18.144531c0-2.917969 2.363282-5.28125 5.277344-5.28125zm0 0" fill="#11dfef"/><path d="m200.195312 377.261719v-18.144531c0-2.917969 2.363282-5.28125 5.277344-5.28125h-73c-2.914062 0-5.277344 2.363281-5.277344 5.28125v18.144531c0 2.914062 2.363282 5.277343 5.277344 5.277343h73c-2.914062 0-5.277344-2.363281-5.277344-5.277343zm0 0" fill="#0ac6e5"/><path d="m131.472656 353.835938h42.285156v28.703124h-42.285156c-2.914062 0-5.277344-2.363281-5.277344-5.277343v-18.144531c0-2.917969 2.363282-5.28125 5.277344-5.28125zm0 0" fill="#615df9"/></svg>