<?xml version="1.0" encoding="UTF-8" standalone="no"?>
<!-- Created with Inkscape (http://www.inkscape.org/) -->

<svg
   xmlns:dc="http://purl.org/dc/elements/1.1/"
   xmlns:cc="http://creativecommons.org/ns#"
   xmlns:rdf="http://www.w3.org/1999/02/22-rdf-syntax-ns#"
   xmlns:svg="http://www.w3.org/2000/svg"
   xmlns="http://www.w3.org/2000/svg"
   xmlns:sodipodi="http://sodipodi.sourceforge.net/DTD/sodipodi-0.dtd"
   xmlns:inkscape="http://www.inkscape.org/namespaces/inkscape"
   id="svg2"
   version="1.1"
   inkscape:version="0.48.4 r9939"
   width="300"
   height="300"
   xml:space="preserve"
   sodipodi:docname="iconos_desarrollo_web_3.svg"><metadata
     id="metadata8"><rdf:RDF><cc:Work
         rdf:about=""><dc:format>image/svg+xml</dc:format><dc:type
           rdf:resource="http://purl.org/dc/dcmitype/StillImage" /><dc:title></dc:title></cc:Work></rdf:RDF></metadata><defs
     id="defs6"><clipPath
       clipPathUnits="userSpaceOnUse"
       id="clipPath18"><path
         d="m 0,799.92 799.92,0 L 799.92,0 0,0 0,799.92 z"
         id="path20"
         inkscape:connector-curvature="0" /></clipPath><clipPath
       clipPathUnits="userSpaceOnUse"
       id="clipPath138"><path
         d="m 0,799.92 799.92,0 L 799.92,0 0,0 0,799.92 z"
         id="path140"
         inkscape:connector-curvature="0" /></clipPath><clipPath
       clipPathUnits="userSpaceOnUse"
       id="clipPath228"><path
         d="m 0,799.92 799.92,0 L 799.92,0 0,0 0,799.92 z"
         id="path230"
         inkscape:connector-curvature="0" /></clipPath><clipPath
       clipPathUnits="userSpaceOnUse"
       id="clipPath508"><path
         d="m 0,799.92 799.92,0 L 799.92,0 0,0 0,799.92 z"
         id="path510"
         inkscape:connector-curvature="0" /></clipPath><clipPath
       clipPathUnits="userSpaceOnUse"
       id="clipPath990"><path
         d="m 0,799.92 799.92,0 L 799.92,0 0,0 0,799.92 z"
         id="path992"
         inkscape:connector-curvature="0" /></clipPath><clipPath
       clipPathUnits="userSpaceOnUse"
       id="clipPath1094"><path
         d="m 0,799.92 799.92,0 L 799.92,0 0,0 0,799.92 z"
         id="path1096"
         inkscape:connector-curvature="0" /></clipPath><clipPath
       clipPathUnits="userSpaceOnUse"
       id="clipPath1634"><path
         d="m 0,799.92 799.92,0 L 799.92,0 0,0 0,799.92 z"
         id="path1636"
         inkscape:connector-curvature="0" /></clipPath><clipPath
       clipPathUnits="userSpaceOnUse"
       id="clipPath1896"><path
         d="m 0,799.92 799.92,0 L 799.92,0 0,0 0,799.92 z"
         id="path1898"
         inkscape:connector-curvature="0" /></clipPath><clipPath
       clipPathUnits="userSpaceOnUse"
       id="clipPath2164"><path
         d="m 0,799.92 799.92,0 L 799.92,0 0,0 0,799.92 z"
         id="path2166"
         inkscape:connector-curvature="0" /></clipPath><clipPath
       clipPathUnits="userSpaceOnUse"
       id="clipPath2480"><path
         d="m 0,799.92 799.92,0 L 799.92,0 0,0 0,799.92 z"
         id="path2482"
         inkscape:connector-curvature="0" /></clipPath></defs><sodipodi:namedview
     pagecolor="#ffffff"
     bordercolor="#666666"
     borderopacity="1"
     objecttolerance="10"
     gridtolerance="10"
     guidetolerance="10"
     inkscape:pageopacity="0"
     inkscape:pageshadow="2"
     inkscape:window-width="1366"
     inkscape:window-height="717"
     id="namedview4"
     showgrid="false"
     inkscape:zoom="0.9440944"
     inkscape:cx="507.7774"
     inkscape:cy="159.69666"
     inkscape:window-x="0"
     inkscape:window-y="25"
     inkscape:window-maximized="1"
     inkscape:current-layer="g10" /><g
     id="g10"
     inkscape:groupmode="layer"
     inkscape:label="mixocial_01"
     transform="matrix(1.25,0,0,-1.25,0,300)"><g
       id="g922"
       transform="translate(70.905254,208.86626)"><path
         d="m 0,0 134.225,0 c 14.094,0 25.625,-11.531 25.625,-25.625 l 0,-134.225 c 0,-14.093 -11.531,-25.625 -25.625,-25.625 l -134.225,0 c -14.094,0 -25.625,11.532 -25.625,25.625 l 0,134.225 C -25.625,-11.531 -14.094,0 0,0"
         style="fill:#a2c9eb;fill-opacity:1;fill-rule:evenodd;stroke:none"
         id="path924"
         inkscape:connector-curvature="0" /></g><g
       id="g926"
       transform="translate(183.63716,90.788561)"><path
         d="M 0,0 C 1.092,-0.137 2.089,0.638 2.226,1.73 2.363,2.823 1.588,3.819 0.496,3.956 0.228,3.99 -0.04,4.035 -0.305,4.092 -2.605,4.584 -4.48,5.916 -5.7,7.739 c -1.243,1.86 -1.823,4.243 -1.504,6.798 0.04,0.325 0.096,0.659 0.169,0.999 0.636,2.97 2.357,5.515 4.624,7.227 2.236,1.689 4.999,2.562 7.755,2.218 0.597,-0.075 1.188,-0.174 1.77,-0.299 5.124,-1.096 9.303,-4.068 12.027,-8.141 2.748,-4.109 4.031,-9.352 3.334,-14.947 -0.089,-0.713 -0.211,-1.435 -0.368,-2.166 -1.374,-6.42 -5.094,-11.922 -10.001,-15.626 -4.874,-3.68 -10.911,-5.579 -16.955,-4.826 -0.927,0.116 -1.84,0.271 -2.739,0.463 -7.948,1.7 -14.432,6.311 -18.66,12.634 -4.251,6.359 -6.238,14.46 -5.162,23.094 0.138,1.101 0.326,2.213 0.566,3.336 2.111,9.869 7.833,18.327 15.376,24.023 7.512,5.672 16.825,8.599 26.156,7.435 1.256,-0.156 2.494,-0.366 3.709,-0.626 10.771,-2.304 19.56,-8.556 25.291,-17.128 5.757,-8.608 8.447,-19.568 6.991,-31.244 -0.185,-1.486 -0.438,-2.989 -0.762,-4.504 -0.206,-0.961 0.319,-1.91 1.201,-2.265 l 0,32.598 c -1.145,2.685 -2.525,5.235 -4.121,7.623 -6.301,9.422 -15.95,16.293 -27.765,18.82 -1.319,0.283 -2.669,0.511 -4.048,0.682 -10.392,1.296 -20.733,-1.94 -29.048,-8.218 -8.282,-6.255 -14.564,-15.535 -16.88,-26.361 -0.263,-1.228 -0.469,-2.454 -0.622,-3.674 -1.197,-9.609 1.037,-18.661 5.81,-25.798 4.797,-7.174 12.141,-12.404 21.133,-14.327 1.003,-0.215 2.029,-0.388 3.079,-0.519 7.104,-0.886 14.17,1.323 19.847,5.609 5.645,4.263 9.926,10.588 11.504,17.964 0.179,0.836 0.32,1.672 0.424,2.505 0.819,6.569 -0.714,12.762 -3.981,17.65 -3.294,4.925 -8.333,8.514 -14.502,9.834 -0.685,0.147 -1.389,0.265 -2.108,0.355 -3.818,0.476 -7.608,-0.706 -10.647,-3 -3.007,-2.271 -5.288,-5.64 -6.128,-9.567 -0.095,-0.444 -0.169,-0.891 -0.226,-1.338 -0.44,-3.527 0.389,-6.861 2.153,-9.5 1.789,-2.675 4.524,-4.625 7.869,-5.34 C -0.771,0.113 -0.391,0.049 0,0"
         style="fill:#dbeeff;fill-opacity:1;fill-rule:nonzero;stroke:none"
         id="path928"
         inkscape:connector-curvature="0" /></g><g
       id="g930"
       transform="translate(225.93016,127.78666)"><path
         d="M 0,0 C 1.937,2.307 1.639,5.748 -0.668,7.686 -2.976,9.624 -6.417,9.324 -8.354,7.017 -10.292,4.71 -9.993,1.27 -7.686,-0.668 -5.379,-2.606 -1.938,-2.307 0,0"
         style="fill:#46749c;fill-opacity:1;fill-rule:evenodd;stroke:none"
         id="path932"
         inkscape:connector-curvature="0" /></g><g
       id="g934"
       transform="translate(230.75536,125.36136)"><path
         d="M 0,0 -35.292,29.644 -36.895,27.735 0,-3.255 0,0 z"
         style="fill:#46749c;fill-opacity:1;fill-rule:nonzero;stroke:none"
         id="path936"
         inkscape:connector-curvature="0" /></g><g
       id="g938"
       transform="translate(198.83936,150.54246)"><path
         d="M 0,0 C 1.938,2.307 1.639,5.748 -0.668,7.685 -2.976,9.623 -6.417,9.325 -8.354,7.017 -10.292,4.71 -9.993,1.269 -7.686,-0.668 -5.379,-2.607 -1.938,-2.307 0,0"
         style="fill:#46749c;fill-opacity:1;fill-rule:evenodd;stroke:none"
         id="path940"
         inkscape:connector-curvature="0" /></g><g
       id="g942"
       transform="translate(160.76996,111.76806)"><path
         d="m 0,0 c 2.814,3.35 2.379,8.347 -0.971,11.161 -3.349,2.814 -8.346,2.379 -11.16,-0.971 -2.814,-3.35 -2.38,-8.346 0.97,-11.16 C -7.811,-3.784 -2.814,-3.35 0,0"
         style="fill:#6690b5;fill-opacity:1;fill-rule:evenodd;stroke:none"
         id="path944"
         inkscape:connector-curvature="0" /></g><g
       id="g946"
       transform="translate(159.02686,113.23246)"><path
         d="M 0,0 C 2.005,2.387 1.696,5.948 -0.691,7.953 -3.079,9.958 -6.64,9.648 -8.645,7.261 -10.65,4.875 -10.34,1.313 -7.953,-0.692 -5.566,-2.697 -2.005,-2.387 0,0"
         style="fill:#dbeeff;fill-opacity:1;fill-rule:evenodd;stroke:none"
         id="path948"
         inkscape:connector-curvature="0" /></g><g
       id="g950"
       transform="translate(209.94626,74.086961)"><path
         d="M 0,0 C 2.814,3.35 2.379,8.347 -0.97,11.161 -4.321,13.975 -9.317,13.54 -12.131,10.19 -14.945,6.84 -14.51,1.843 -11.161,-0.971 -7.811,-3.785 -2.814,-3.35 0,0"
         style="fill:#6690b5;fill-opacity:1;fill-rule:evenodd;stroke:none"
         id="path952"
         inkscape:connector-curvature="0" /></g><g
       id="g954"
       transform="translate(208.20306,75.551261)"><path
         d="M 0,0 C 2.005,2.387 1.695,5.948 -0.691,7.953 -3.079,9.958 -6.64,9.648 -8.645,7.261 -10.65,4.874 -10.34,1.313 -7.953,-0.692 -5.566,-2.697 -2.005,-2.387 0,0"
         style="fill:#dbeeff;fill-opacity:1;fill-rule:evenodd;stroke:none"
         id="path956"
         inkscape:connector-curvature="0" /></g><g
       id="g958"
       transform="translate(189.34816,87.846161)"><path
         d="m 0,0 c 2.813,3.35 2.379,8.346 -0.971,11.161 -3.35,2.814 -8.346,2.379 -11.16,-0.972 -2.814,-3.349 -2.38,-8.346 0.97,-11.16 C -7.811,-3.785 -2.814,-3.35 0,0"
         style="fill:#6690b5;fill-opacity:1;fill-rule:evenodd;stroke:none"
         id="path960"
         inkscape:connector-curvature="0" /></g><g
       id="g962"
       transform="translate(187.60496,89.310061)"><path
         d="M 0,0 C 2.005,2.387 1.695,5.948 -0.692,7.954 -3.079,9.958 -6.64,9.649 -8.645,7.262 -10.65,4.875 -10.341,1.314 -7.954,-0.692 -5.566,-2.697 -2.005,-2.387 0,0"
         style="fill:#dbeeff;fill-opacity:1;fill-rule:evenodd;stroke:none"
         id="path964"
         inkscape:connector-curvature="0" /></g><g
       id="g966"
       transform="translate(230.75536,93.496061)"><path
         d="m 0,0 c -2.532,0.268 -5.147,-0.687 -6.908,-2.783 -2.813,-3.35 -2.379,-8.347 0.971,-11.16 1.718,-1.444 3.869,-2.032 5.937,-1.811 L 0,0 z"
         style="fill:#6690b5;fill-opacity:1;fill-rule:evenodd;stroke:none"
         id="path968"
         inkscape:connector-curvature="0" /></g><g
       id="g970"
       transform="translate(230.75536,91.200661)"><path
         d="M 0,0 C -1.878,0.281 -3.854,-0.391 -5.165,-1.952 -7.169,-4.339 -6.86,-7.9 -4.473,-9.905 -3.181,-10.99 -1.547,-11.396 0,-11.164 L 0,0 z"
         style="fill:#dbeeff;fill-opacity:1;fill-rule:evenodd;stroke:none"
         id="path972"
         inkscape:connector-curvature="0" /></g><g
       id="g974"
       transform="translate(169.08986,69.628461)"><path
         d="m 0,0 c 2.814,3.35 2.379,8.347 -0.971,11.161 -3.349,2.814 -8.346,2.379 -11.16,-0.971 -2.814,-3.35 -2.38,-8.347 0.97,-11.161 C -7.811,-3.785 -2.814,-3.35 0,0"
         style="fill:#6690b5;fill-opacity:1;fill-rule:evenodd;stroke:none"
         id="path976"
         inkscape:connector-curvature="0" /></g><g
       id="g978"
       transform="translate(167.34666,71.092261)"><path
         d="M 0,0 C 2.005,2.388 1.696,5.948 -0.692,7.954 -3.079,9.959 -6.64,9.649 -8.645,7.262 -10.65,4.875 -10.341,1.314 -7.953,-0.691 -5.566,-2.697 -2.005,-2.387 0,0"
         style="fill:#dbeeff;fill-opacity:1;fill-rule:evenodd;stroke:none"
         id="path980"
         inkscape:connector-curvature="0" /></g><g
       id="g994"
       transform="translate(84.649354,78.262761)"><path
         d="m 0,0 31.327,0 14.684,-26.601 -60.695,0 L 0,0 z"
         style="fill:#4d4d4d;fill-opacity:1;fill-rule:evenodd;stroke:none"
         id="path996"
         inkscape:connector-curvature="0" /></g><g
       id="g998"
       transform="translate(26.49415,182.08006)"><path
         d="m 0,0 147.637,0 c 4.155,0 7.553,-3.399 7.553,-7.554 l 0,-95.454 c 0,-4.154 -3.398,-7.554 -7.553,-7.554 l -147.637,0 c -4.153,0 -7.553,3.4 -7.553,7.554 l 0,95.454 C -7.553,-3.399 -4.154,0 0,0"
         style="fill:#46749c;fill-opacity:1;fill-rule:evenodd;stroke:none"
         id="path1000"
         inkscape:connector-curvature="0" /></g><g
       id="g1002"
       transform="translate(172.51216,79.175261)"><path
         d="m 0,0 c 0.541,0 0.981,-0.44 0.981,-0.981 0,-0.541 -0.44,-0.98 -0.981,-0.98 -0.542,0 -0.981,0.439 -0.981,0.98 C -0.981,-0.44 -0.542,0 0,0"
         style="fill:#f5f5f5;fill-opacity:1;fill-rule:evenodd;stroke:none"
         id="path1004"
         inkscape:connector-curvature="0" /></g><g
       id="g1006"
       transform="translate(168.68206,79.175261)"><path
         d="m 0,0 c 0.542,0 0.98,-0.44 0.98,-0.981 0,-0.541 -0.438,-0.98 -0.98,-0.98 -0.542,0 -0.981,0.439 -0.981,0.98 C -0.981,-0.44 -0.542,0 0,0"
         style="fill:#f5f5f5;fill-opacity:1;fill-rule:evenodd;stroke:none"
         id="path1008"
         inkscape:connector-curvature="0" /></g><g
       id="g1010"
       transform="translate(164.85206,79.175261)"><path
         d="m 0,0 c 0.542,0 0.98,-0.44 0.98,-0.981 0,-0.541 -0.438,-0.98 -0.98,-0.98 -0.542,0 -0.98,0.439 -0.98,0.98 C -0.98,-0.44 -0.542,0 0,0"
         style="fill:#f5f5f5;fill-opacity:1;fill-rule:evenodd;stroke:none"
         id="path1012"
         inkscape:connector-curvature="0" /></g><g
       id="g1014"
       transform="translate(10.21575,59.701161)"><path
         d="m 0,0 180.193,0 c 2.211,0 4.02,-1.809 4.02,-4.019 0,-2.211 -1.809,-4.02 -4.02,-4.02 L 0,-8.039 c -2.21,0 -4.02,1.809 -4.02,4.02 C -4.02,-1.809 -2.21,0 0,0"
         style="fill:#46749c;fill-opacity:1;fill-rule:evenodd;stroke:none"
         id="path1016"
         inkscape:connector-curvature="0" /></g><g
       id="g1018"
       transform="translate(194.42916,55.681661)"><path
         d="m 0,0 c 0,-2.211 -1.81,-4.02 -4.02,-4.02 l -180.193,0 c -2.211,0 -4.02,1.809 -4.02,4.02 L 0,0 z"
         style="fill:#4d4d4d;fill-opacity:1;fill-rule:evenodd;stroke:none"
         id="path1020"
         inkscape:connector-curvature="0" /></g><path
       d="m 23.95505,177.67336 152.71701,0 0,-92.666999 -152.71701,0 0,92.666999 z"
       style="fill:#ffffff;fill-opacity:1;fill-rule:evenodd;stroke:none"
       id="path1022"
       inkscape:connector-curvature="0" /><path
       d="m 34.09205,177.67336 132.44201,0 0,-8.024 -132.44201,0 0,8.024 z"
       style="fill:#91bde3;fill-opacity:1;fill-rule:evenodd;stroke:none"
       id="path1024"
       inkscape:connector-curvature="0" /><path
       d="m 69.494054,164.76836 61.639006,0 0,-12.223 -61.639006,0 0,12.223 z"
       style="fill:#ed7b5c;fill-opacity:1;fill-rule:evenodd;stroke:none"
       id="path1026"
       inkscape:connector-curvature="0" /><path
       d="m 34.09105,138.23336 132.44301,0 0,-33.696 -132.44301,0 0,33.696 z"
       style="fill:#5896cc;fill-opacity:1;fill-rule:evenodd;stroke:none"
       id="path1028"
       inkscape:connector-curvature="0" /><path
       d="m 59.52905,142.64236 81.56701,0 0,5.123 -81.56701,0 0,-5.123 z"
       style="fill:#91bde3;fill-opacity:1;fill-rule:evenodd;stroke:none"
       id="path1030"
       inkscape:connector-curvature="0" /><path
       d="m 75.370054,97.772361 -33.256004,0 0,-12.765 33.256004,0 0,12.765 z"
       style="fill:#ffd47f;fill-opacity:1;fill-rule:evenodd;stroke:none"
       id="path1032"
       inkscape:connector-curvature="0" /><path
       d="m 116.94106,97.772361 -33.256006,0 0,-12.765 33.256006,0 0,12.765 z"
       style="fill:#ed7b5c;fill-opacity:1;fill-rule:evenodd;stroke:none"
       id="path1034"
       inkscape:connector-curvature="0" /><path
       d="m 158.51306,97.772361 -33.257,0 0,-12.765 33.257,0 0,12.765 z"
       style="fill:#91bde3;fill-opacity:1;fill-rule:evenodd;stroke:none"
       id="path1036"
       inkscape:connector-curvature="0" /><g
       id="g1038"
       transform="translate(159.30956,123.55226)"><path
         d="M 0,0 C -0.21,0.265 -0.167,0.65 0.098,0.861 0.363,1.071 0.749,1.027 0.959,0.763 L 2.546,-1.225 C 2.561,-1.243 2.574,-1.261 2.586,-1.28 L 2.588,-1.283 2.604,-1.308 2.615,-1.33 2.618,-1.335 2.628,-1.357 2.635,-1.372 C 2.644,-1.393 2.651,-1.414 2.658,-1.436 L 2.66,-1.442 C 2.668,-1.47 2.674,-1.498 2.678,-1.526 l 10e-4,-0.005 c 0.003,-0.021 0.004,-0.042 0.005,-0.063 l 0,-0.014 0,-0.008 0,-0.013 C 2.683,-1.651 2.682,-1.672 2.679,-1.693 L 2.678,-1.698 C 2.674,-1.726 2.668,-1.754 2.66,-1.782 L 2.658,-1.788 C 2.652,-1.81 2.644,-1.831 2.635,-1.852 L 2.628,-1.866 2.618,-1.889 2.615,-1.894 2.604,-1.916 2.588,-1.941 2.586,-1.944 C 2.574,-1.963 2.561,-1.981 2.546,-1.999 L 0.959,-3.986 C 0.749,-4.251 0.363,-4.295 0.098,-4.085 -0.167,-3.874 -0.21,-3.488 0,-3.224 L 1.287,-1.612 0,0 z"
         style="fill:#ffffff;fill-opacity:1;fill-rule:nonzero;stroke:none"
         id="path1040"
         inkscape:connector-curvature="0" /></g><g
       id="g1042"
       transform="translate(40.35685,124.31496)"><path
         d="M 0,0 C 0.21,0.265 0.596,0.309 0.861,0.098 1.125,-0.112 1.17,-0.498 0.959,-0.763 L -0.328,-2.375 0.959,-3.987 C 1.17,-4.251 1.125,-4.637 0.861,-4.848 0.596,-5.058 0.21,-5.014 0,-4.749 l -1.587,1.987 c -0.015,0.018 -0.028,0.036 -0.04,0.055 l -0.002,0.003 -0.016,0.025 -0.011,0.022 -0.003,0.006 -0.011,0.022 -0.006,0.014 c -0.009,0.021 -0.017,0.043 -0.023,0.064 l -0.002,0.007 c -0.008,0.027 -0.014,0.055 -0.018,0.083 l -10e-4,0.005 c -0.003,0.021 -0.005,0.042 -0.005,0.064 l 0,0.014 0,0.007 0,0.014 c 0,0.022 0.002,0.043 0.005,0.064 l 10e-4,0.004 c 0.004,0.029 0.01,0.057 0.018,0.084 l 0.002,0.006 c 0.006,0.022 0.014,0.043 0.023,0.065 l 0.006,0.014 0.011,0.022 0.003,0.006 0.011,0.021 0.016,0.026 0.002,0.003 c 0.012,0.018 0.025,0.037 0.04,0.054 L 0,0 z"
         style="fill:#ffffff;fill-opacity:1;fill-rule:nonzero;stroke:none"
         id="path1044"
         inkscape:connector-curvature="0" /></g><g
       id="g1046"
       transform="translate(144.15626,164.53956)"><path
         d="m 0,0 -5.826,-15.915 15.678,6.436 49.686,51.645 c 1.42,1.478 1.375,3.85 -0.102,5.272 l -4.479,4.308 c -1.478,1.421 -3.851,1.376 -5.272,-0.102 L 0,0 z"
         style="fill:#ed7b5c;fill-opacity:1;fill-rule:evenodd;stroke:none"
         id="path1048"
         inkscape:connector-curvature="0" /></g><g
       id="g1050"
       transform="translate(144.15576,164.53956)"><path
         d="m 0,0 -5.825,-15.915 11.181,11.622 51.84,53.885 -2.238,2.154 c -1.478,1.422 -3.851,1.376 -5.272,-0.102 L 0,0 z"
         style="fill:#fa9891;fill-opacity:1;fill-rule:evenodd;stroke:none"
         id="path1052"
         inkscape:connector-curvature="0" /></g><g
       id="g1054"
       transform="translate(144.15626,164.53956)"><path
         d="M 0,0 -5.826,-15.915 9.852,-9.479 55.73,38.209 c -2.901,3.928 -6.188,7.039 -9.852,9.479 L 0,0 z"
         style="fill:#cccccc;fill-opacity:1;fill-rule:evenodd;stroke:none"
         id="path1056"
         inkscape:connector-curvature="0" /></g><g
       id="g1058"
       transform="translate(144.15576,164.53956)"><path
         d="M 0,0 -5.825,-15.915 5.356,-4.293 51.221,43.38 c -1.68,1.626 -3.461,3.055 -5.342,4.308 L 0,0 z"
         style="fill:#ffffff;fill-opacity:1;fill-rule:evenodd;stroke:none"
         id="path1060"
         inkscape:connector-curvature="0" /></g><g
       id="g1062"
       transform="translate(144.15626,164.53956)"><path
         d="m 0,0 -5.826,-15.915 15.678,6.436 42.855,44.545 c -2.881,3.987 -6.168,7.096 -9.852,9.478 L 0,0 z"
         style="fill:#ed7b5c;fill-opacity:1;fill-rule:evenodd;stroke:none"
         id="path1064"
         inkscape:connector-curvature="0" /></g><g
       id="g1066"
       transform="translate(144.51116,164.88376)"><path
         d="M 0,0 -5.78,-15.791 5.313,-4.259 47.85,39.954 c -1.672,1.619 -3.449,3.026 -5.329,4.243 L 0,0 z"
         style="fill:#fa9891;fill-opacity:1;fill-rule:evenodd;stroke:none"
         id="path1068"
         inkscape:connector-curvature="0" /></g><g
       id="g1070"
       transform="translate(144.15576,164.53906)"><path
         d="M 0,0 -5.825,-15.915 9.852,-9.479 C 8.566,-7.682 7.064,-5.936 5.356,-4.293 3.647,-2.649 1.845,-1.215 0,0"
         style="fill:#cccccc;fill-opacity:1;fill-rule:evenodd;stroke:none"
         id="path1072"
         inkscape:connector-curvature="0" /></g><g
       id="g1074"
       transform="translate(144.15626,164.53906)"><path
         d="M 0,0 -5.826,-15.915 5.355,-4.293 C 3.646,-2.649 1.844,-1.215 0,0"
         style="fill:#ffffff;fill-opacity:1;fill-rule:evenodd;stroke:none"
         id="path1076"
         inkscape:connector-curvature="0" /></g><g
       id="g1078"
       transform="translate(140.25486,153.88186)"><path
         d="m 0,0 -1.924,-5.257 5.179,2.126 C 2.83,-2.538 2.334,-1.961 1.77,-1.418 1.205,-0.875 0.61,-0.401 0,0"
         style="fill:#91bde3;fill-opacity:1;fill-rule:evenodd;stroke:none"
         id="path1080"
         inkscape:connector-curvature="0" /></g></g></svg>