<?xml version="1.0" encoding="UTF-8" standalone="no"?>
<!-- Created with Inkscape (http://www.inkscape.org/) -->

<svg
   xmlns:dc="http://purl.org/dc/elements/1.1/"
   xmlns:cc="http://creativecommons.org/ns#"
   xmlns:rdf="http://www.w3.org/1999/02/22-rdf-syntax-ns#"
   xmlns:svg="http://www.w3.org/2000/svg"
   xmlns="http://www.w3.org/2000/svg"
   xmlns:sodipodi="http://sodipodi.sourceforge.net/DTD/sodipodi-0.dtd"
   xmlns:inkscape="http://www.inkscape.org/namespaces/inkscape"
   id="svg2"
   version="1.1"
   inkscape:version="0.48.4 r9939"
   width="300"
   height="300"
   xml:space="preserve"
   sodipodi:docname="icono_desarrollo_web.svg"><metadata
     id="metadata8"><rdf:RDF><cc:Work
         rdf:about=""><dc:format>image/svg+xml</dc:format><dc:type
           rdf:resource="http://purl.org/dc/dcmitype/StillImage" /><dc:title></dc:title></cc:Work></rdf:RDF></metadata><defs
     id="defs6"><clipPath
       clipPathUnits="userSpaceOnUse"
       id="clipPath18"><path
         d="m 0,799.92 799.92,0 L 799.92,0 0,0 0,799.92 z"
         id="path20"
         inkscape:connector-curvature="0" /></clipPath><clipPath
       clipPathUnits="userSpaceOnUse"
       id="clipPath138"><path
         d="m 0,799.92 799.92,0 L 799.92,0 0,0 0,799.92 z"
         id="path140"
         inkscape:connector-curvature="0" /></clipPath><clipPath
       clipPathUnits="userSpaceOnUse"
       id="clipPath228"><path
         d="m 0,799.92 799.92,0 L 799.92,0 0,0 0,799.92 z"
         id="path230"
         inkscape:connector-curvature="0" /></clipPath><clipPath
       clipPathUnits="userSpaceOnUse"
       id="clipPath508"><path
         d="m 0,799.92 799.92,0 L 799.92,0 0,0 0,799.92 z"
         id="path510"
         inkscape:connector-curvature="0" /></clipPath><clipPath
       clipPathUnits="userSpaceOnUse"
       id="clipPath990"><path
         d="m 0,799.92 799.92,0 L 799.92,0 0,0 0,799.92 z"
         id="path992"
         inkscape:connector-curvature="0" /></clipPath><clipPath
       clipPathUnits="userSpaceOnUse"
       id="clipPath1094"><path
         d="m 0,799.92 799.92,0 L 799.92,0 0,0 0,799.92 z"
         id="path1096"
         inkscape:connector-curvature="0" /></clipPath><clipPath
       clipPathUnits="userSpaceOnUse"
       id="clipPath1634"><path
         d="m 0,799.92 799.92,0 L 799.92,0 0,0 0,799.92 z"
         id="path1636"
         inkscape:connector-curvature="0" /></clipPath><clipPath
       clipPathUnits="userSpaceOnUse"
       id="clipPath1896"><path
         d="m 0,799.92 799.92,0 L 799.92,0 0,0 0,799.92 z"
         id="path1898"
         inkscape:connector-curvature="0" /></clipPath><clipPath
       clipPathUnits="userSpaceOnUse"
       id="clipPath2164"><path
         d="m 0,799.92 799.92,0 L 799.92,0 0,0 0,799.92 z"
         id="path2166"
         inkscape:connector-curvature="0" /></clipPath><clipPath
       clipPathUnits="userSpaceOnUse"
       id="clipPath2480"><path
         d="m 0,799.92 799.92,0 L 799.92,0 0,0 0,799.92 z"
         id="path2482"
         inkscape:connector-curvature="0" /></clipPath></defs><sodipodi:namedview
     pagecolor="#ffffff"
     bordercolor="#666666"
     borderopacity="1"
     objecttolerance="10"
     gridtolerance="10"
     guidetolerance="10"
     inkscape:pageopacity="0"
     inkscape:pageshadow="2"
     inkscape:window-width="1366"
     inkscape:window-height="717"
     id="namedview4"
     showgrid="false"
     inkscape:zoom="0.9440944"
     inkscape:cx="-0.9938423"
     inkscape:cy="159.69666"
     inkscape:window-x="0"
     inkscape:window-y="25"
     inkscape:window-maximized="1"
     inkscape:current-layer="g10" /><g
     id="g10"
     inkscape:groupmode="layer"
     inkscape:label="mixocial_01"
     transform="matrix(1.25,0,0,-1.25,0,300)"><g
       id="g164"
       transform="translate(55.012522,210.65575)"><path
         d="m 0,0 134.226,0 c 14.093,0 25.625,-11.531 25.625,-25.625 l 0,-134.225 c 0,-14.093 -11.532,-25.625 -25.625,-25.625 l -134.226,0 c -14.093,0 -25.624,11.532 -25.624,25.625 l 0,134.225 C -25.624,-11.531 -14.093,0 0,0"
         style="fill:#ffd47f;fill-opacity:1;fill-rule:evenodd;stroke:none"
         id="path166"
         inkscape:connector-curvature="0" /></g><g
       id="g168"
       transform="translate(108.87682,106.25095)"><path
         d="m 0,0 26.498,0 12.42,-22.5 -51.338,0 L 0,0 z"
         style="fill:#4d4d4d;fill-opacity:1;fill-rule:evenodd;stroke:none"
         id="path170"
         inkscape:connector-curvature="0" /></g><g
       id="g172"
       transform="translate(59.688322,194.06295)"><path
         d="m 0,0 124.875,0 c 3.515,0 6.389,-2.875 6.389,-6.389 l 0,-80.738 c 0,-3.514 -2.874,-6.389 -6.389,-6.389 L 0,-93.516 c -3.514,0 -6.389,2.875 -6.389,6.389 l 0,80.738 C -6.389,-2.875 -3.514,0 0,0"
         style="fill:#46749c;fill-opacity:1;fill-rule:evenodd;stroke:none"
         id="path174"
         inkscape:connector-curvature="0" /></g><g
       id="g176"
       transform="translate(183.19422,107.02295)"><path
         d="m 0,0 c 0.458,0 0.83,-0.372 0.83,-0.83 0,-0.458 -0.372,-0.829 -0.83,-0.829 -0.458,0 -0.829,0.371 -0.829,0.829 C -0.829,-0.372 -0.458,0 0,0"
         style="fill:#f5f5f5;fill-opacity:1;fill-rule:evenodd;stroke:none"
         id="path178"
         inkscape:connector-curvature="0" /></g><g
       id="g180"
       transform="translate(179.95492,107.02295)"><path
         d="m 0,0 c 0.458,0 0.829,-0.372 0.829,-0.83 0,-0.458 -0.371,-0.829 -0.829,-0.829 -0.458,0 -0.829,0.371 -0.829,0.829 C -0.829,-0.372 -0.458,0 0,0"
         style="fill:#f5f5f5;fill-opacity:1;fill-rule:evenodd;stroke:none"
         id="path182"
         inkscape:connector-curvature="0" /></g><g
       id="g184"
       transform="translate(176.71572,107.02295)"><path
         d="m 0,0 c 0.458,0 0.829,-0.372 0.829,-0.83 0,-0.458 -0.371,-0.829 -0.829,-0.829 -0.458,0 -0.83,0.371 -0.83,0.829 C -0.83,-0.372 -0.458,0 0,0"
         style="fill:#f5f5f5;fill-opacity:1;fill-rule:evenodd;stroke:none"
         id="path186"
         inkscape:connector-curvature="0" /></g><g
       id="g188"
       transform="translate(45.919822,90.551252)"><path
         d="m 0,0 152.413,0 c 1.87,0 3.399,-1.53 3.399,-3.4 0,-1.87 -1.529,-3.4 -3.399,-3.4 L 0,-6.8 c -1.87,0 -3.4,1.53 -3.4,3.4 0,1.87 1.53,3.4 3.4,3.4"
         style="fill:#46749c;fill-opacity:1;fill-rule:evenodd;stroke:none"
         id="path190"
         inkscape:connector-curvature="0" /></g><g
       id="g192"
       transform="translate(201.73232,87.151352)"><path
         d="m 0,0 c 0,-1.87 -1.53,-3.4 -3.4,-3.4 l -152.412,0 c -1.872,0 -3.401,1.53 -3.401,3.4 L 0,0 z"
         style="fill:#4d4d4d;fill-opacity:1;fill-rule:evenodd;stroke:none"
         id="path194"
         inkscape:connector-curvature="0" /></g><path
       d="m 57.539422,190.33685 129.172998,0 0,-78.381 -129.172998,0 0,78.381 z"
       style="fill:#ffffff;fill-opacity:1;fill-rule:evenodd;stroke:none"
       id="path196"
       inkscape:connector-curvature="0" /><path
       d="m 66.114422,190.33685 112.023998,0 0,-6.788 -112.023998,0 0,6.788 z"
       style="fill:#a2c9eb;fill-opacity:1;fill-rule:evenodd;stroke:none"
       id="path198"
       inkscape:connector-curvature="0" /><path
       d="m 96.058422,179.41985 52.135998,0 0,-10.338 -52.135998,0 0,10.338 z"
       style="fill:#ed7b5c;fill-opacity:1;fill-rule:evenodd;stroke:none"
       id="path200"
       inkscape:connector-curvature="0" /><path
       d="m 66.114422,156.97585 112.023998,0 0,-28.5 -112.023998,0 0,28.5 z"
       style="fill:#5896cc;fill-opacity:1;fill-rule:evenodd;stroke:none"
       id="path202"
       inkscape:connector-curvature="0" /><path
       d="m 87.630422,160.70485 68.990998,0 0,4.333 -68.990998,0 0,-4.333 z"
       style="fill:#91bde3;fill-opacity:1;fill-rule:evenodd;stroke:none"
       id="path204"
       inkscape:connector-curvature="0" /><path
       d="m 101.02942,122.75285 -28.129998,0 0,-10.797 28.129998,0 0,10.797 z"
       style="fill:#ffae00;fill-opacity:1;fill-rule:evenodd;stroke:none"
       id="path206"
       inkscape:connector-curvature="0" /><path
       d="m 136.19142,122.75285 -28.13,0 0,-10.797 28.13,0 0,10.797 z"
       style="fill:#fa9891;fill-opacity:1;fill-rule:evenodd;stroke:none"
       id="path208"
       inkscape:connector-curvature="0" /><path
       d="m 171.35342,122.75285 -28.13,0 0,-10.797 28.13,0 0,10.797 z"
       style="fill:#a2c9eb;fill-opacity:1;fill-rule:evenodd;stroke:none"
       id="path210"
       inkscape:connector-curvature="0" /><g
       id="g212"
       transform="translate(172.02722,144.55805)"><path
         d="m 0,0 c -0.178,0.224 -0.141,0.55 0.083,0.729 0.225,0.177 0.551,0.14 0.729,-0.084 l 1.342,-1.681 c 0.012,-0.015 0.024,-0.03 0.034,-0.047 L 2.189,-1.084 2.202,-1.106 2.213,-1.125 2.215,-1.129 2.224,-1.148 2.229,-1.16 c 0.007,-0.018 0.014,-0.036 0.02,-0.054 L 2.25,-1.22 c 0.007,-0.023 0.012,-0.047 0.016,-0.071 l 0,-0.003 C 2.269,-1.312 2.27,-1.331 2.271,-1.348 l 0,-0.012 0,-0.006 0,-0.012 C 2.27,-1.396 2.269,-1.414 2.266,-1.432 l 0,-0.004 C 2.262,-1.46 2.257,-1.483 2.25,-1.507 L 2.249,-1.512 C 2.243,-1.53 2.236,-1.548 2.229,-1.566 L 2.224,-1.579 2.215,-1.598 2.213,-1.602 2.202,-1.62 2.189,-1.642 2.188,-1.644 C 2.178,-1.66 2.166,-1.675 2.154,-1.69 L 0.812,-3.372 C 0.634,-3.596 0.308,-3.633 0.083,-3.455 -0.141,-3.276 -0.178,-2.95 0,-2.727 L 1.089,-1.363 0,0 z"
         style="fill:#ffffff;fill-opacity:1;fill-rule:nonzero;stroke:none"
         id="path214"
         inkscape:connector-curvature="0" /></g><g
       id="g216"
       transform="translate(71.412922,145.20305)"><path
         d="m 0,0 c 0.179,0.224 0.505,0.261 0.729,0.083 0.223,-0.178 0.26,-0.504 0.083,-0.728 L -0.277,-2.008 0.812,-3.372 C 0.989,-3.595 0.952,-3.921 0.729,-4.1 0.505,-4.278 0.179,-4.241 0,-4.017 l -1.342,1.682 c -0.012,0.015 -0.023,0.03 -0.034,0.046 l -0.002,0.002 -0.013,0.022 -0.009,0.018 -0.002,0.004 -0.01,0.019 -0.005,0.013 c -0.008,0.017 -0.014,0.036 -0.02,0.054 l -10e-4,0.005 c -0.007,0.024 -0.012,0.047 -0.015,0.071 l -10e-4,0.004 c -0.002,0.018 -0.004,0.036 -0.005,0.054 l 0,0.012 0,0.006 0,0.012 c 0.001,0.018 0.003,0.035 0.005,0.054 l 10e-4,0.003 c 0.003,0.024 0.008,0.048 0.015,0.071 l 10e-4,0.006 c 0.005,0.018 0.012,0.036 0.02,0.054 l 0.005,0.012 0.01,0.019 0.002,0.004 0.009,0.019 0.013,0.022 0.002,0.001 c 0.011,0.017 0.022,0.032 0.034,0.047 L 0,0 z"
         style="fill:#ffffff;fill-opacity:1;fill-rule:nonzero;stroke:none"
         id="path218"
         inkscape:connector-curvature="0" /></g><g
       id="g232"
       transform="translate(35.718622,122.88475)"><path
         d="m 0,0 79.963,0 c 1.634,0 2.971,-1.337 2.971,-2.972 l 0,-50.516 c 0,-1.635 -1.337,-2.972 -2.971,-2.972 L 0,-56.46 c -1.635,0 -2.972,1.337 -2.972,2.972 l 0,50.516 C -2.972,-1.337 -1.635,0 0,0"
         style="fill:#4d4d4d;fill-opacity:1;fill-rule:evenodd;stroke:none"
         id="path234"
         inkscape:connector-curvature="0" /></g><path
       d="m 37.204422,116.98985 76.990998,0 0,-41.331998 -76.990998,0 0,41.331998 z"
       style="fill:#ffffff;fill-opacity:1;fill-rule:evenodd;stroke:none"
       id="path236"
       inkscape:connector-curvature="0" /><g
       id="g238"
       transform="translate(75.700022,118.75145)"><path
         d="m 0,0 c 0.597,0 1.08,0.484 1.08,1.081 0,0.597 -0.483,1.08 -1.08,1.08 -0.597,0 -1.08,-0.483 -1.08,-1.08 C -1.08,0.484 -0.597,0 0,0"
         style="fill:#cccccc;fill-opacity:1;fill-rule:evenodd;stroke:none"
         id="path240"
         inkscape:connector-curvature="0" /></g><path
       d="m 73.872422,73.084852 3.653,0 0,-3.653 -3.653,0 0,3.653 z"
       style="fill:#cccccc;fill-opacity:1;fill-rule:evenodd;stroke:none"
       id="path242"
       inkscape:connector-curvature="0" /><g
       id="g244"
       transform="translate(32.746922,66.424752)"><path
         d="m 0,0 85.905,0 14.921,-9.78 -115.746,0 L 0,0 z"
         style="fill:#4d4d4d;fill-opacity:1;fill-rule:evenodd;stroke:none"
         id="path246"
         inkscape:connector-curvature="0" /></g><g
       id="g248"
       transform="translate(17.827022,56.644952)"><path
         d="m 0,0 115.746,0 0,-3.333 c 0,-1.181 -0.966,-2.147 -2.147,-2.147 l -111.452,0 C 0.966,-5.48 0,-4.514 0,-3.333 L 0,0 z"
         style="fill:#4d4d4d;fill-opacity:1;fill-rule:evenodd;stroke:none"
         id="path250"
         inkscape:connector-curvature="0" /></g><path
       d="m 64.009422,53.804852 23.38,0 0,-1.491 -23.38,0 0,1.491 z"
       style="fill:#cccccc;fill-opacity:1;fill-rule:evenodd;stroke:none"
       id="path252"
       inkscape:connector-curvature="0" /><path
       d="m 17.827422,56.644852 115.745998,0 0,-1.667 -115.745998,0 0,1.667 z"
       style="fill:#4d4d4d;fill-opacity:1;fill-rule:evenodd;stroke:none"
       id="path254"
       inkscape:connector-curvature="0" /><g
       id="g256"
       transform="translate(36.262522,60.778252)"><path
         d="M 0,0 -0.211,-0.158 0,-0.158 0,0 z M 0,1.989 0,1.839 C -0.437,1.531 -0.868,1.223 -1.304,0.913 -1.804,0.557 -2.3,0.196 -2.809,-0.163 -5.33,-0.167 -7.84,-0.17 -10.352,-0.174 c 0.596,0.359 1.18,0.719 1.765,1.079 0.584,0.359 1.169,0.72 1.764,1.08 L 0,1.989 z m 0,2.992 0,-2.156 -5.46,0 c 0.574,0.359 1.17,0.719 1.754,1.079 0.584,0.359 1.169,0.72 1.764,1.08 L 0,4.981 z M -11.801,-1.069 0,-1.045 0,-3.183 -15.329,-3.228 c 0.596,0.36 1.18,0.719 1.764,1.079 0.585,0.36 1.169,0.72 1.764,1.08 M 0,1.839 0.211,1.989 0,1.989 0,1.839 z m 4.063,0.152 0,-2.142 L 0,-0.158 0,0 C 0.406,0.304 0.814,0.608 1.218,0.915 1.686,1.271 2.159,1.632 2.636,1.99 l 1.427,0.001 z m 0,1.082 -0.324,-0.248 0.324,0 0,0.248 z m 0,1.904 0,-0.231 C 3.668,4.463 3.277,4.179 2.885,3.9 2.378,3.539 1.867,3.183 1.38,2.825 L 0,2.825 0,4.981 4.063,4.977 z M 0,-1.045 4.063,-1.037 4.063,-3.17 0,-3.183 0,-1.045 z m 57.741,5.957 c 2.111,-0.003 4.221,-0.006 6.342,-0.008 0.292,-0.347 0.581,-0.694 0.865,-1.036 0.289,-0.348 0.585,-0.69 0.866,-1.036 -2.283,0 -4.578,-10e-4 -6.85,-10e-4 -0.205,0.347 -0.409,0.69 -0.616,1.039 -0.204,0.343 -0.402,0.694 -0.607,1.042 m -8.527,0.01 c 2.109,-0.003 4.23,-0.005 6.341,-0.008 0.184,-0.349 0.353,-0.698 0.531,-1.042 0.179,-0.35 0.346,-0.694 0.529,-1.041 -2.294,0 -4.577,0 -6.86,0 -0.087,0.348 -0.179,0.695 -0.271,1.044 -0.091,0.347 -0.184,0.697 -0.27,1.047 m -8.528,0.01 c 2.11,-0.003 4.22,-0.005 6.341,-0.008 0.066,-0.349 0.125,-0.7 0.184,-1.048 0.06,-0.349 0.13,-0.697 0.185,-1.045 -2.285,-10e-4 -4.557,-10e-4 -6.84,-0.002 0.021,0.35 0.043,0.701 0.065,1.051 0.022,0.349 0.043,0.701 0.065,1.052 m -8.528,0.01 C 34.269,4.94 36.379,4.938 38.5,4.935 38.445,4.583 38.396,4.233 38.348,3.881 38.3,3.531 38.239,3.18 38.196,2.83 35.913,2.829 33.63,2.829 31.356,2.828 c 0.131,0.352 0.272,0.704 0.402,1.056 0.13,0.352 0.27,0.705 0.4,1.058 M 23.63,4.953 C 25.74,4.951 27.861,4.947 29.972,4.945 29.81,4.591 29.647,4.238 29.485,3.885 29.322,3.533 29.149,3.181 28.998,2.828 c -2.295,-10e-4 -4.578,0 -6.851,-10e-4 0.239,0.354 0.487,0.708 0.737,1.063 0.248,0.353 0.486,0.708 0.746,1.063 m -8.527,0.01 C 17.213,4.96 19.334,4.958 21.455,4.956 21.174,4.6 20.892,4.245 20.621,3.891 20.352,3.536 20.059,3.182 19.788,2.827 17.505,2.826 15.222,2.826 12.938,2.825 c 0.357,0.357 0.725,0.713 1.083,1.068 0.357,0.356 0.713,0.713 1.082,1.07 M 59.44,2.023 c 2.348,10e-4 4.697,0.003 7.045,0.004 0.282,-0.345 0.574,-0.691 0.866,-1.036 0.292,-0.345 0.585,-0.689 0.866,-1.035 -2.522,-0.004 -5.043,-0.008 -7.554,-0.012 -0.195,0.347 -0.407,0.695 -0.605,1.038 -0.203,0.349 -0.423,0.694 -0.618,1.041 M 49.971,2.018 c 2.348,0.001 4.697,0.003 7.056,0.003 0.162,-0.347 0.347,-0.694 0.519,-1.041 0.174,-0.347 0.357,-0.694 0.53,-1.041 -2.521,-0.004 -5.043,-0.008 -7.554,-0.012 -0.085,0.348 -0.178,0.698 -0.269,1.044 -0.093,0.35 -0.195,0.698 -0.282,1.047 M 40.513,2.012 c 2.337,0.002 4.685,0.003 7.034,0.005 0.054,-0.35 0.119,-0.7 0.183,-1.048 0.066,-0.349 0.13,-0.698 0.185,-1.047 -2.521,-0.004 -5.032,-0.008 -7.543,-0.012 0.032,0.35 0.06,0.7 0.075,1.05 0.017,0.35 0.032,0.701 0.066,1.052 M 31.044,2.007 c 2.348,10e-4 4.685,0.002 7.033,0.004 -0.054,-0.352 -0.102,-0.702 -0.151,-1.054 -0.048,-0.35 -0.097,-0.701 -0.152,-1.052 -2.521,-0.004 -5.032,-0.008 -7.543,-0.012 0.141,0.352 0.276,0.702 0.412,1.056 0.134,0.351 0.259,0.704 0.401,1.058 M 21.563,2.002 c 2.348,0 4.697,0.001 7.056,0.003 C 28.446,1.652 28.284,1.298 28.121,0.946 27.959,0.593 27.797,0.241 27.635,-0.111 25.112,-0.116 22.591,-0.12 20.08,-0.125 c 0.249,0.355 0.503,0.708 0.747,1.062 0.242,0.353 0.487,0.71 0.736,1.065 M 12.104,1.996 C 14.442,1.997 16.802,1.999 19.149,2 18.868,1.645 18.594,1.292 18.316,0.935 18.042,0.583 17.765,0.225 17.483,-0.128 14.962,-0.133 12.44,-0.137 9.93,-0.142 c 0.368,0.357 0.727,0.71 1.092,1.069 0.36,0.353 0.715,0.712 1.082,1.069 M 40.317,-0.96 c 2.587,0.004 5.162,0.01 7.76,0.016 0.054,-0.35 0.119,-0.699 0.184,-1.047 0.065,-0.349 0.13,-0.698 0.195,-1.046 -2.76,-0.008 -5.509,-0.017 -8.258,-0.025 0.023,0.35 0.038,0.7 0.055,1.05 0.016,0.35 0.043,0.7 0.064,1.052 m -36.254,5.706 0.326,0.23 -0.326,0.001 0,-0.231 z m 0,-1.921 0,0.248 C 4.426,3.347 4.793,3.621 5.157,3.898 5.625,4.253 6.099,4.615 6.575,4.974 8.685,4.971 10.795,4.969 12.916,4.965 12.526,4.608 12.137,4.252 11.748,3.896 11.358,3.539 10.958,3.183 10.579,2.826 L 4.063,2.825 z m 0,-2.976 0,2.142 5.618,0.003 C 9.28,1.637 8.891,1.28 8.501,0.923 8.111,0.567 7.732,0.211 7.332,-0.146 L 4.063,-0.151 z m 70.842,-0.738 0,-2.069 -2.814,-0.009 c -6.926,-0.02 -13.862,-0.042 -20.789,-0.062 -0.097,0.348 -0.184,0.696 -0.281,1.045 -0.098,0.348 -0.184,0.695 -0.271,1.045 6.504,0.014 13.008,0.027 19.512,0.041 l 4.643,0.009 z m 0,2.921 0,-2.064 -4.091,-0.007 c -0.313,0.344 -0.625,0.691 -0.941,1.033 -0.322,0.347 -0.649,0.69 -0.953,1.035 l 5.985,0.003 z m 0,0.896 C 74.55,3.24 74.187,3.551 73.823,3.863 73.423,4.205 73.011,4.549 72.61,4.893 70.489,4.896 68.379,4.898 66.269,4.901 66.594,4.556 66.904,4.208 67.222,3.866 67.543,3.519 67.86,3.177 68.174,2.832 l 6.731,0.001 0,0.095 z m 0,1.963 0,-0.086 -0.108,0.086 0.108,0 z m -70.842,-5.928 8.853,0.019 c 8.236,0.017 16.482,0.035 24.739,0.052 C 37.602,-1.318 37.553,-1.669 37.504,-2.019 37.455,-2.37 37.396,-2.72 37.353,-3.071 28.565,-3.097 19.777,-3.124 11.001,-3.15 l -6.938,-0.02 0,2.133 z m 74.316,3.072 c 2.349,0 4.696,0.002 7.056,0.004 0.508,-0.342 1.03,-0.682 1.547,-1.025 0.51,-0.339 1.029,-0.681 1.537,-1.023 -2.522,-0.006 -5.043,-0.01 -7.554,-0.013 -0.433,0.343 -0.863,0.687 -1.287,1.026 -0.432,0.346 -0.877,0.687 -1.299,1.031 m -3.474,2.77 c 0.397,-0.315 0.793,-0.63 1.19,-0.944 0.433,-0.342 0.855,-0.685 1.277,-1.028 2.284,0 4.567,0 6.861,10e-4 -0.508,0.342 -1.019,0.681 -1.537,1.024 -0.509,0.339 -1.027,0.683 -1.547,1.025 l -6.244,0.008 0,-0.086 z m 0,-1.972 0,0.095 0.109,-0.095 -0.109,0 z m 0,-2.865 0,2.064 1.05,10e-4 c 0.4,-0.344 0.806,-0.683 1.212,-1.031 0.395,-0.338 0.801,-0.685 1.19,-1.029 l -3.452,-0.005 z m 0,-2.926 0,2.069 14.891,0.032 c 0.519,-0.342 1.028,-0.683 1.548,-1.024 0.519,-0.341 1.027,-0.682 1.548,-1.023 L 74.905,-2.958 z"
         style="fill:#cccccc;fill-opacity:1;fill-rule:evenodd;stroke:none"
         id="path258"
         inkscape:connector-curvature="0" /></g><path
       d="m 42.718422,116.98985 65.961998,0 0,-4.535 -65.961998,0 0,4.535 z"
       style="fill:#a2c9eb;fill-opacity:1;fill-rule:evenodd;stroke:none"
       id="path260"
       inkscape:connector-curvature="0" /><path
       d="m 60.350422,109.69585 30.698,0 0,-6.908 -30.698,0 0,6.908 z"
       style="fill:#ed7b5c;fill-opacity:1;fill-rule:evenodd;stroke:none"
       id="path262"
       inkscape:connector-curvature="0" /><path
       d="m 42.718422,94.699852 65.961998,0 0,-19.042 -65.961998,0 0,19.042 z"
       style="fill:#5896cc;fill-opacity:1;fill-rule:evenodd;stroke:none"
       id="path264"
       inkscape:connector-curvature="0" /><path
       d="m 55.387422,97.191854 40.624,0 0,2.895996 -40.624,0 0,-2.895996 z"
       style="fill:#91bde3;fill-opacity:1;fill-rule:evenodd;stroke:none"
       id="path266"
       inkscape:connector-curvature="0" /><g
       id="g268"
       transform="translate(104.52522,88.220652)"><path
         d="M 0,0 C -0.108,0.141 -0.083,0.343 0.058,0.451 0.198,0.56 0.399,0.534 0.509,0.393 L 1.951,-1.474 C 1.961,-1.486 1.97,-1.5 1.978,-1.513 L 1.979,-1.515 1.98,-1.518 1.982,-1.521 C 1.986,-1.529 1.991,-1.538 1.994,-1.546 L 2.001,-1.562 2.004,-1.568 2.01,-1.589 2.016,-1.612 C 2.018,-1.621 2.02,-1.631 2.02,-1.642 l 10e-4,-0.001 0,-0.014 0,-0.01 0,-0.006 0,-0.005 0,-0.006 0,-0.01 0,-0.014 L 2.02,-1.709 2.016,-1.739 2.01,-1.762 2.004,-1.783 2.001,-1.789 1.994,-1.805 1.982,-1.83 1.98,-1.833 1.979,-1.835 1.978,-1.838 C 1.97,-1.852 1.961,-1.865 1.951,-1.876 L 0.509,-3.745 C 0.399,-3.885 0.198,-3.911 0.058,-3.802 -0.083,-3.694 -0.108,-3.492 0,-3.351 L 1.294,-1.675 0,0 z"
         style="fill:#ffffff;fill-opacity:1;fill-rule:nonzero;stroke:none"
         id="path270"
         inkscape:connector-curvature="0" /></g><g
       id="g272"
       transform="translate(46.366122,88.613752)"><path
         d="M 0,0 C 0.108,0.141 0.311,0.167 0.45,0.058 0.591,-0.05 0.617,-0.252 0.509,-0.393 L -0.786,-2.068 0.509,-3.744 C 0.617,-3.885 0.591,-4.087 0.45,-4.195 0.311,-4.304 0.108,-4.278 0,-4.138 l -1.443,1.868 c -0.01,0.012 -0.019,0.025 -0.027,0.039 l -0.001,0.002 -0.002,0.003 -10e-4,0.003 c -0.005,0.008 -0.008,0.016 -0.012,0.025 l -0.007,0.016 -0.002,0.006 -0.007,0.021 -0.006,0.023 c -0.002,0.009 -0.003,0.019 -0.004,0.029 l -10e-4,0.002 0,0.014 -0.001,0.01 0,0.006 0,0.005 0,0.005 0.001,0.011 0,0.014 10e-4,10e-4 0.004,0.03 0.006,0.023 0.007,0.021 0.002,0.006 0.007,0.016 c 0.004,0.008 0.007,0.017 0.012,0.025 l 10e-4,0.003 0.002,0.003 0.001,0.002 c 0.008,0.013 0.017,0.027 0.027,0.039 L 0,0 z"
         style="fill:#ffffff;fill-opacity:1;fill-rule:nonzero;stroke:none"
         id="path274"
         inkscape:connector-curvature="0" /></g><g
       id="g276"
       transform="translate(210.50182,120.75435)"><path
         d="m 0,0 -26.072,0 c -5.049,0 -9.18,-4.131 -9.18,-9.18 l 0,-45.009 c 0,-5.05 4.131,-9.181 9.18,-9.181 l 26.072,0 c 5.05,0 9.181,4.131 9.181,9.181 l 0,45.009 C 9.181,-4.131 5.05,0 0,0"
         style="fill:#4d4d4d;fill-opacity:1;fill-rule:evenodd;stroke:none"
         id="path278"
         inkscape:connector-curvature="0" /></g><g
       id="g280"
       transform="translate(216.39342,115.44035)"><path
         d="m 0,0 -37.854,0 c -0.075,0 -0.134,-0.06 -0.134,-0.134 l 0,-51.943 c 0,-0.073 0.059,-0.133 0.134,-0.133 l 37.854,0 c 0.074,0 0.134,0.06 0.134,0.133 l 0,51.943 C 0.134,-0.06 0.074,0 0,0"
         style="fill:#ffffff;fill-opacity:1;fill-rule:evenodd;stroke:none"
         id="path282"
         inkscape:connector-curvature="0" /></g><g
       id="g284"
       transform="translate(202.33972,119.18695)"><path
         d="m 0,0 -9.747,0 c -0.265,0 -0.482,-0.216 -0.482,-0.48 0,-0.265 0.217,-0.481 0.482,-0.481 l 9.747,0 c 0.265,0 0.48,0.216 0.48,0.481 C 0.48,-0.216 0.265,0 0,0"
         style="fill:#cccccc;fill-opacity:1;fill-rule:evenodd;stroke:none"
         id="path286"
         inkscape:connector-curvature="0" /></g><g
       id="g288"
       transform="translate(197.46572,58.773852)"><path
         d="M 0,0 C 0.896,0 1.625,0.729 1.625,1.624 1.625,2.519 0.896,3.248 0,3.248 -0.895,3.248 -1.624,2.519 -1.624,1.624 -1.624,0.729 -0.895,0 0,0"
         style="fill:#cccccc;fill-opacity:1;fill-rule:evenodd;stroke:none"
         id="path290"
         inkscape:connector-curvature="0" /></g><path
       d="m 178.40542,63.229852 38.122,0 0,52.209998 -38.122,0 0,-52.209998 z"
       style="fill:#ffffff;fill-opacity:1;fill-rule:evenodd;stroke:none"
       id="path292"
       inkscape:connector-curvature="0" /><path
       d="m 178.40542,112.90485 38.122,0 0,2.535 -38.122,0 0,-2.535 z"
       style="fill:#91bde3;fill-opacity:1;fill-rule:evenodd;stroke:none"
       id="path294"
       inkscape:connector-curvature="0" /><path
       d="m 188.59442,107.50185 17.742,0 0,3.861 -17.742,0 0,-3.861 z"
       style="fill:#ed7b5c;fill-opacity:1;fill-rule:evenodd;stroke:none"
       id="path296"
       inkscape:connector-curvature="0" /><path
       d="m 178.40542,92.334852 38.122,0 0,10.645998 -38.122,0 0,-10.645998 z"
       style="fill:#5896cc;fill-opacity:1;fill-rule:evenodd;stroke:none"
       id="path298"
       inkscape:connector-curvature="0" /><path
       d="m 185.72642,104.37385 23.479,0 0,1.618 -23.479,0 0,-1.618 z"
       style="fill:#91bde3;fill-opacity:1;fill-rule:evenodd;stroke:none"
       id="path300"
       inkscape:connector-curvature="0" /><path
       d="m 180.71342,81.594852 9.573,0 0,8.603 -9.573,0 0,-8.603 z"
       style="fill:#ffd47f;fill-opacity:1;fill-rule:evenodd;stroke:none"
       id="path302"
       inkscape:connector-curvature="0" /><path
       d="m 192.67942,81.594852 9.573,0 0,8.603 -9.573,0 0,-8.603 z"
       style="fill:#fa9891;fill-opacity:1;fill-rule:evenodd;stroke:none"
       id="path304"
       inkscape:connector-curvature="0" /><path
       d="m 204.64542,81.594852 9.573,0 0,8.603 -9.573,0 0,-8.603 z"
       style="fill:#a2c9eb;fill-opacity:1;fill-rule:evenodd;stroke:none"
       id="path306"
       inkscape:connector-curvature="0" /><path
       d="m 178.40542,63.229852 38.122,0 0,4.641 -38.122,0 0,-4.641 z"
       style="fill:#91bde3;fill-opacity:1;fill-rule:evenodd;stroke:none"
       id="path308"
       inkscape:connector-curvature="0" /><path
       d="m 180.71342,78.795852 9.573,0 0,1.619 -9.573,0 0,-1.619 z"
       style="fill:#cccccc;fill-opacity:1;fill-rule:evenodd;stroke:none"
       id="path310"
       inkscape:connector-curvature="0" /><path
       d="m 180.71342,76.014852 9.573,0 0,1.619 -9.573,0 0,-1.619 z"
       style="fill:#cccccc;fill-opacity:1;fill-rule:evenodd;stroke:none"
       id="path312"
       inkscape:connector-curvature="0" /><path
       d="m 180.71342,73.233852 9.573,0 0,1.619 -9.573,0 0,-1.619 z"
       style="fill:#cccccc;fill-opacity:1;fill-rule:evenodd;stroke:none"
       id="path314"
       inkscape:connector-curvature="0" /><path
       d="m 180.71342,70.452852 6.062,0 0,1.618 -6.062,0 0,-1.618 z"
       style="fill:#cccccc;fill-opacity:1;fill-rule:evenodd;stroke:none"
       id="path316"
       inkscape:connector-curvature="0" /><path
       d="m 192.67942,78.795852 9.573,0 0,1.619 -9.573,0 0,-1.619 z"
       style="fill:#cccccc;fill-opacity:1;fill-rule:evenodd;stroke:none"
       id="path318"
       inkscape:connector-curvature="0" /><path
       d="m 192.67942,76.014852 9.573,0 0,1.619 -9.573,0 0,-1.619 z"
       style="fill:#cccccc;fill-opacity:1;fill-rule:evenodd;stroke:none"
       id="path320"
       inkscape:connector-curvature="0" /><path
       d="m 192.67942,73.233852 9.573,0 0,1.619 -9.573,0 0,-1.619 z"
       style="fill:#cccccc;fill-opacity:1;fill-rule:evenodd;stroke:none"
       id="path322"
       inkscape:connector-curvature="0" /><path
       d="m 192.67942,70.452852 6.062,0 0,1.618 -6.062,0 0,-1.618 z"
       style="fill:#cccccc;fill-opacity:1;fill-rule:evenodd;stroke:none"
       id="path324"
       inkscape:connector-curvature="0" /><path
       d="m 204.64542,78.795852 9.573,0 0,1.619 -9.573,0 0,-1.619 z"
       style="fill:#cccccc;fill-opacity:1;fill-rule:evenodd;stroke:none"
       id="path326"
       inkscape:connector-curvature="0" /><path
       d="m 204.64542,76.014852 9.573,0 0,1.619 -9.573,0 0,-1.619 z"
       style="fill:#cccccc;fill-opacity:1;fill-rule:evenodd;stroke:none"
       id="path328"
       inkscape:connector-curvature="0" /><path
       d="m 204.64542,73.233852 9.573,0 0,1.619 -9.573,0 0,-1.619 z"
       style="fill:#cccccc;fill-opacity:1;fill-rule:evenodd;stroke:none"
       id="path330"
       inkscape:connector-curvature="0" /><path
       d="m 204.64542,70.452852 6.062,0 0,1.618 -6.062,0 0,-1.618 z"
       style="fill:#cccccc;fill-opacity:1;fill-rule:evenodd;stroke:none"
       id="path332"
       inkscape:connector-curvature="0" /><g
       id="g334"
       transform="translate(214.02042,99.26755)"><path
         d="M 0,0 C -0.11,0.139 -0.087,0.342 0.052,0.452 0.19,0.563 0.394,0.54 0.504,0.401 L 1.337,-0.643 C 1.345,-0.652 1.353,-0.662 1.358,-0.672 L 1.359,-0.673 1.367,-0.687 1.374,-0.698 1.375,-0.701 1.381,-0.712 1.384,-0.72 C 1.389,-0.731 1.393,-0.743 1.396,-0.753 L 1.397,-0.757 C 1.401,-0.772 1.404,-0.786 1.406,-0.801 L 1.407,-0.803 C 1.408,-0.815 1.409,-0.826 1.41,-0.837 l 0,-0.007 0,-0.005 0,-0.006 L 1.407,-0.889 1.406,-0.892 C 1.404,-0.906 1.401,-0.921 1.397,-0.935 L 1.396,-0.939 C 1.393,-0.95 1.389,-0.961 1.384,-0.972 L 1.381,-0.98 1.375,-0.992 1.374,-0.995 1.367,-1.006 1.359,-1.019 1.358,-1.021 C 1.353,-1.031 1.345,-1.04 1.337,-1.049 L 0.504,-2.093 C 0.394,-2.232 0.19,-2.255 0.052,-2.145 -0.087,-2.034 -0.11,-1.832 0,-1.693 L 0.677,-0.847 0,0 z"
         style="fill:#ffffff;fill-opacity:1;fill-rule:nonzero;stroke:none"
         id="path336"
         inkscape:connector-curvature="0" /></g><g
       id="g338"
       transform="translate(180.40712,99.66845)"><path
         d="m 0,0 c 0.111,0.139 0.313,0.162 0.452,0.051 0.14,-0.11 0.162,-0.313 0.052,-0.452 L -0.172,-1.248 0.504,-2.094 C 0.614,-2.232 0.592,-2.435 0.452,-2.546 0.313,-2.656 0.111,-2.633 0,-2.494 l -0.833,1.044 c -0.008,0.009 -0.015,0.018 -0.021,0.029 l -0.001,0.001 -0.008,0.013 -0.006,0.011 -0.002,0.003 -0.005,0.012 -0.004,0.008 c -0.004,0.011 -0.009,0.022 -0.012,0.033 l -0.001,0.004 c -0.004,0.014 -0.007,0.029 -0.009,0.044 l 0,0.002 c -0.002,0.011 -0.003,0.022 -0.003,0.034 l 0,0.006 0,0.005 0,0.007 c 0,0.011 0.001,0.022 0.003,0.034 l 0,0.002 c 0.003,0.015 0.005,0.029 0.009,0.044 l 0.001,0.004 c 0.003,0.01 0.008,0.022 0.012,0.033 l 0.004,0.008 0.005,0.011 0.002,0.003 0.006,0.012 0.008,0.013 0.001,0.001 c 0.006,0.01 0.013,0.02 0.021,0.029 L 0,0 z"
         style="fill:#ffffff;fill-opacity:1;fill-rule:nonzero;stroke:none"
         id="path340"
         inkscape:connector-curvature="0" /></g><g
       id="g342"
       transform="translate(160.58972,95.653752)"><path
         d="m 0,0 17.072,0 c 3.239,0 5.888,-2.649 5.888,-5.887 l 0,-32.715 c 0,-3.238 -2.649,-5.887 -5.887,-5.887 l -17.073,0 c -3.238,0 -5.887,2.649 -5.887,5.887 l 0,32.715 C -5.887,-2.649 -3.238,0 0,0"
         style="fill:#46749c;fill-opacity:1;fill-rule:evenodd;stroke:none"
         id="path344"
         inkscape:connector-curvature="0" /></g><g
       id="g346"
       transform="translate(156.40222,91.006352)"><path
         d="m 0,0 25.448,0 0,-33.663 L 0,-33.663 0,0 z"
         style="fill:#ffffff;fill-opacity:1;fill-rule:evenodd;stroke:none"
         id="path348"
         inkscape:connector-curvature="0" /></g><g
       id="g350"
       transform="translate(164.85242,93.196252)"><path
         d="M 0,0 8.548,0 C 8.78,0 8.97,0.19 8.97,0.422 l 0,0 c 0,0.232 -0.19,0.422 -0.422,0.422 L 0,0.844 c -0.232,0 -0.422,-0.19 -0.422,-0.422 l 0,0 C -0.422,0.19 -0.232,0 0,0"
         style="fill:#a2c9eb;fill-opacity:1;fill-rule:evenodd;stroke:none"
         id="path352"
         inkscape:connector-curvature="0" /></g><g
       id="g354"
       transform="translate(161.92562,53.546852)"><path
         d="m 0,0 14.401,0 c 0.36,0 0.655,0.294 0.655,0.654 l 0,0.001 c 0,0.36 -0.295,0.654 -0.655,0.654 L 0,1.309 c -0.36,0 -0.654,-0.294 -0.654,-0.654 l 0,-0.001 C -0.654,0.294 -0.36,0 0,0"
         style="fill:#a2c9eb;fill-opacity:1;fill-rule:evenodd;stroke:none"
         id="path356"
         inkscape:connector-curvature="0" /></g><g
       id="g358"
       transform="translate(169.12582,56.763152)"><path
         d="m 0,0 c 1.415,0 2.563,-1.147 2.563,-2.562 0,-1.415 -1.148,-2.562 -2.562,-2.562 -1.415,0 -2.563,1.147 -2.563,2.562 C -2.562,-1.147 -1.414,0 0,0"
         style="fill:#46749c;fill-opacity:1;fill-rule:evenodd;stroke:none"
         id="path360"
         inkscape:connector-curvature="0" /></g><g
       id="g362"
       transform="translate(169.12582,56.007252)"><path
         d="m 0,0 c 0.997,0 1.806,-0.809 1.806,-1.806 0,-0.998 -0.809,-1.806 -1.806,-1.806 -0.997,0 -1.806,0.808 -1.806,1.806 C -1.806,-0.809 -0.997,0 0,0"
         style="fill:#a2c9eb;fill-opacity:1;fill-rule:evenodd;stroke:none"
         id="path364"
         inkscape:connector-curvature="0" /></g><path
       d="m 156.40142,57.343852 25.449,0 0,33.663 -25.449,0 0,-33.663 z"
       style="fill:#ffffff;fill-opacity:1;fill-rule:evenodd;stroke:none"
       id="path366"
       inkscape:connector-curvature="0" /><path
       d="m 156.40142,89.371852 25.449,0 0,1.634 -25.449,0 0,-1.634 z"
       style="fill:#a2c9eb;fill-opacity:1;fill-rule:evenodd;stroke:none"
       id="path368"
       inkscape:connector-curvature="0" /><path
       d="m 163.20442,85.887852 11.844,0 0,2.49 -11.844,0 0,-2.49 z"
       style="fill:#ed7b5c;fill-opacity:1;fill-rule:evenodd;stroke:none"
       id="path370"
       inkscape:connector-curvature="0" /><path
       d="m 156.40142,76.108852 25.449,0 0,6.864 -25.449,0 0,-6.864 z"
       style="fill:#5896cc;fill-opacity:1;fill-rule:evenodd;stroke:none"
       id="path372"
       inkscape:connector-curvature="0" /><path
       d="m 161.28942,83.870852 15.673,0 0,1.044 -15.673,0 0,-1.044 z"
       style="fill:#91bde3;fill-opacity:1;fill-rule:evenodd;stroke:none"
       id="path374"
       inkscape:connector-curvature="0" /><path
       d="m 157.94342,69.184852 6.39,0 0,5.546 -6.39,0 0,-5.546 z"
       style="fill:#ffd47f;fill-opacity:1;fill-rule:evenodd;stroke:none"
       id="path376"
       inkscape:connector-curvature="0" /><path
       d="m 165.93142,69.184852 6.39,0 0,5.546 -6.39,0 0,-5.546 z"
       style="fill:#fa9891;fill-opacity:1;fill-rule:evenodd;stroke:none"
       id="path378"
       inkscape:connector-curvature="0" /><path
       d="m 173.91842,69.184852 6.391,0 0,5.546 -6.391,0 0,-5.546 z"
       style="fill:#a2c9eb;fill-opacity:1;fill-rule:evenodd;stroke:none"
       id="path380"
       inkscape:connector-curvature="0" /><path
       d="m 156.40142,57.343852 25.449,0 0,2.992 -25.449,0 0,-2.992 z"
       style="fill:#a2c9eb;fill-opacity:1;fill-rule:evenodd;stroke:none"
       id="path382"
       inkscape:connector-curvature="0" /><path
       d="m 157.94342,67.379852 6.39,0 0,1.043 -6.39,0 0,-1.043 z"
       style="fill:#cccccc;fill-opacity:1;fill-rule:evenodd;stroke:none"
       id="path384"
       inkscape:connector-curvature="0" /><path
       d="m 157.94342,65.586852 6.39,0 0,1.043 -6.39,0 0,-1.043 z"
       style="fill:#cccccc;fill-opacity:1;fill-rule:evenodd;stroke:none"
       id="path386"
       inkscape:connector-curvature="0" /><path
       d="m 157.94342,63.793852 6.39,0 0,1.044 -6.39,0 0,-1.044 z"
       style="fill:#cccccc;fill-opacity:1;fill-rule:evenodd;stroke:none"
       id="path388"
       inkscape:connector-curvature="0" /><path
       d="m 157.94342,62.000852 4.046,0 0,1.043 -4.046,0 0,-1.043 z"
       style="fill:#cccccc;fill-opacity:1;fill-rule:evenodd;stroke:none"
       id="path390"
       inkscape:connector-curvature="0" /><path
       d="m 165.93142,67.379852 6.39,0 0,1.043 -6.39,0 0,-1.043 z"
       style="fill:#cccccc;fill-opacity:1;fill-rule:evenodd;stroke:none"
       id="path392"
       inkscape:connector-curvature="0" /><path
       d="m 165.93142,65.586852 6.39,0 0,1.043 -6.39,0 0,-1.043 z"
       style="fill:#cccccc;fill-opacity:1;fill-rule:evenodd;stroke:none"
       id="path394"
       inkscape:connector-curvature="0" /><path
       d="m 165.93142,63.793852 6.39,0 0,1.044 -6.39,0 0,-1.044 z"
       style="fill:#cccccc;fill-opacity:1;fill-rule:evenodd;stroke:none"
       id="path396"
       inkscape:connector-curvature="0" /><path
       d="m 165.93142,62.000852 4.046,0 0,1.043 -4.046,0 0,-1.043 z"
       style="fill:#cccccc;fill-opacity:1;fill-rule:evenodd;stroke:none"
       id="path398"
       inkscape:connector-curvature="0" /><path
       d="m 173.91842,67.379852 6.391,0 0,1.043 -6.391,0 0,-1.043 z"
       style="fill:#cccccc;fill-opacity:1;fill-rule:evenodd;stroke:none"
       id="path400"
       inkscape:connector-curvature="0" /><path
       d="m 173.91842,65.586852 6.391,0 0,1.043 -6.391,0 0,-1.043 z"
       style="fill:#cccccc;fill-opacity:1;fill-rule:evenodd;stroke:none"
       id="path402"
       inkscape:connector-curvature="0" /><path
       d="m 173.91842,63.793852 6.391,0 0,1.044 -6.391,0 0,-1.044 z"
       style="fill:#cccccc;fill-opacity:1;fill-rule:evenodd;stroke:none"
       id="path404"
       inkscape:connector-curvature="0" /><path
       d="m 173.91842,62.000852 4.046,0 0,1.043 -4.046,0 0,-1.043 z"
       style="fill:#cccccc;fill-opacity:1;fill-rule:evenodd;stroke:none"
       id="path406"
       inkscape:connector-curvature="0" /><g
       id="g408"
       transform="translate(179.92082,80.181552)"><path
         d="m 0,0 c -0.072,0.09 -0.057,0.223 0.034,0.294 0.09,0.073 0.223,0.058 0.294,-0.033 l 0.544,-0.68 c 0.005,-0.006 0.01,-0.013 0.014,-0.019 l 0.001,-0.001 0.005,-0.009 0.004,-0.008 0,-0.002 L 0.9,-0.465 0.902,-0.47 C 0.905,-0.477 0.908,-0.484 0.91,-0.492 l 0.001,-0.002 c 0.003,-0.009 0.005,-0.019 0.006,-0.028 l 0,-0.002 c 0.002,-0.007 0.002,-0.015 0.002,-0.022 l 0,-0.005 0,-0.002 0,-0.005 c 0,-0.007 0,-0.015 -0.002,-0.022 l 0,-0.002 C 0.916,-0.591 0.914,-0.601 0.911,-0.61 L 0.91,-0.612 C 0.908,-0.62 0.905,-0.627 0.902,-0.634 L 0.9,-0.639 0.896,-0.647 0.896,-0.649 0.892,-0.656 0.887,-0.665 0.886,-0.666 C 0.882,-0.672 0.877,-0.678 0.872,-0.685 L 0.328,-1.365 C 0.257,-1.456 0.124,-1.471 0.034,-1.399 -0.057,-1.327 -0.072,-1.195 0,-1.104 L 0.441,-0.552 0,0 z"
         style="fill:#ffffff;fill-opacity:1;fill-rule:nonzero;stroke:none"
         id="path410"
         inkscape:connector-curvature="0" /></g><g
       id="g412"
       transform="translate(158.00282,80.442352)"><path
         d="M 0,0 C 0.072,0.091 0.204,0.106 0.295,0.034 0.386,-0.038 0.4,-0.17 0.328,-0.261 l -0.44,-0.552 0.44,-0.552 C 0.4,-1.456 0.386,-1.587 0.295,-1.66 0.204,-1.732 0.072,-1.716 0,-1.626 l -0.544,0.681 c -0.004,0.006 -0.009,0.012 -0.014,0.019 l 0,0 -0.005,0.009 -0.004,0.007 0,0.002 -0.004,0.008 -0.003,0.005 c -0.003,0.007 -0.005,0.015 -0.008,0.022 l 0,0.002 c -0.003,0.01 -0.005,0.019 -0.007,0.029 l 0,0.001 c -0.001,0.008 -0.001,0.015 -0.002,0.022 l 0,0.005 0,0.002 0,0.005 c 0.001,0.008 0.001,0.015 0.002,0.022 l 0,0.002 c 0.002,0.01 0.004,0.019 0.007,0.028 l 0,0.003 c 0.003,0.007 0.005,0.014 0.008,0.022 l 0.003,0.004 0.004,0.008 0,0.002 0.004,0.008 0.005,0.008 0,0.001 c 0.005,0.006 0.01,0.013 0.014,0.019 L 0,0 z"
         style="fill:#ffffff;fill-opacity:1;fill-rule:nonzero;stroke:none"
         id="path414"
         inkscape:connector-curvature="0" /></g><g
       id="g416"
       transform="translate(146.68442,74.892552)"><path
         d="m 0,0 8.702,0 c 1.651,0 3,-1.35 3,-3 l 0,-23.404 c 0,-1.65 -1.349,-3 -3,-3 l -8.701,0 c -1.65,0 -3.001,1.35 -3.001,3 L -3,-3 c 0,1.65 1.35,3 3,3"
         style="fill:#4d4d4d;fill-opacity:1;fill-rule:evenodd;stroke:none"
         id="path418"
         inkscape:connector-curvature="0" /></g><g
       id="g420"
       transform="translate(144.76252,71.820752)"><path
         d="m 0,0 12.559,0 0,-22.249 L 0,-22.249 0,0 z"
         style="fill:#ffffff;fill-opacity:1;fill-rule:evenodd;stroke:none"
         id="path422"
         inkscape:connector-curvature="0" /></g><g
       id="g424"
       transform="translate(148.21662,73.268552)"><path
         d="m 0,0 5.65,0 c 0.154,0 0.279,0.125 0.279,0.279 0,0.154 -0.125,0.279 -0.279,0.279 L 0,0.558 C -0.153,0.558 -0.278,0.433 -0.278,0.279 -0.278,0.125 -0.153,0 0,0"
         style="fill:#cccccc;fill-opacity:1;fill-rule:evenodd;stroke:none"
         id="path426"
         inkscape:connector-curvature="0" /></g><g
       id="g428"
       transform="translate(146.28312,47.062952)"><path
         d="M 0,0 9.518,0 C 9.756,0 9.95,0.194 9.95,0.432 l 0,0.001 C 9.95,0.67 9.756,0.865 9.518,0.865 L 0,0.865 c -0.238,0 -0.433,-0.195 -0.433,-0.432 l 0,-0.001 C -0.433,0.194 -0.238,0 0,0"
         style="fill:#cccccc;fill-opacity:1;fill-rule:evenodd;stroke:none"
         id="path430"
         inkscape:connector-curvature="0" /></g><g
       id="g432"
       transform="translate(151.03602,49.188452)"><path
         d="m 0,0 c 0.936,0 1.693,-0.758 1.693,-1.693 0,-0.935 -0.757,-1.693 -1.693,-1.693 -0.936,0 -1.693,0.758 -1.693,1.693 C -1.693,-0.758 -0.936,0 0,0"
         style="fill:#4d4d4d;fill-opacity:1;fill-rule:evenodd;stroke:none"
         id="path434"
         inkscape:connector-curvature="0" /></g><g
       id="g436"
       transform="translate(151.03602,48.688952)"><path
         d="m 0,0 c 0.659,0 1.193,-0.534 1.193,-1.194 0,-0.659 -0.534,-1.193 -1.193,-1.193 -0.659,0 -1.194,0.534 -1.194,1.193 C -1.194,-0.534 -0.659,0 0,0"
         style="fill:#cccccc;fill-opacity:1;fill-rule:evenodd;stroke:none"
         id="path438"
         inkscape:connector-curvature="0" /></g><path
       d="m 144.76242,55.208852 12.559,0 0,16.612 -12.559,0 0,-16.612 z"
       style="fill:#ffffff;fill-opacity:1;fill-rule:evenodd;stroke:none"
       id="path440"
       inkscape:connector-curvature="0" /><path
       d="m 144.76242,71.014852 12.559,0 0,0.807 -12.559,0 0,-0.807 z"
       style="fill:#a2c9eb;fill-opacity:1;fill-rule:evenodd;stroke:none"
       id="path442"
       inkscape:connector-curvature="0" /><path
       d="m 148.11942,69.295852 5.846,0 0,1.229 -5.846,0 0,-1.229 z"
       style="fill:#ed7b5c;fill-opacity:1;fill-rule:evenodd;stroke:none"
       id="path444"
       inkscape:connector-curvature="0" /><path
       d="m 144.76242,64.469852 12.559,0 0,3.387 -12.559,0 0,-3.387 z"
       style="fill:#5896cc;fill-opacity:1;fill-rule:evenodd;stroke:none"
       id="path446"
       inkscape:connector-curvature="0" /><path
       d="m 147.17442,68.299852 7.734,0 0,0.515 -7.734,0 0,-0.515 z"
       style="fill:#91bde3;fill-opacity:1;fill-rule:evenodd;stroke:none"
       id="path448"
       inkscape:connector-curvature="0" /><path
       d="m 145.52342,61.051852 3.153,0 0,2.737 -3.153,0 0,-2.737 z"
       style="fill:#ffd47f;fill-opacity:1;fill-rule:evenodd;stroke:none"
       id="path450"
       inkscape:connector-curvature="0" /><path
       d="m 149.46442,61.051852 3.154,0 0,2.737 -3.154,0 0,-2.737 z"
       style="fill:#fa9891;fill-opacity:1;fill-rule:evenodd;stroke:none"
       id="path452"
       inkscape:connector-curvature="0" /><path
       d="m 153.40742,61.051852 3.153,0 0,2.737 -3.153,0 0,-2.737 z"
       style="fill:#a2c9eb;fill-opacity:1;fill-rule:evenodd;stroke:none"
       id="path454"
       inkscape:connector-curvature="0" /><path
       d="m 144.76242,49.571852 12.559,0 0,1.477 -12.559,0 0,-1.477 z"
       style="fill:#a2c9eb;fill-opacity:1;fill-rule:evenodd;stroke:none"
       id="path456"
       inkscape:connector-curvature="0" /><path
       d="m 145.52342,60.161852 3.153,0 0,0.515 -3.153,0 0,-0.515 z"
       style="fill:#cccccc;fill-opacity:1;fill-rule:evenodd;stroke:none"
       id="path458"
       inkscape:connector-curvature="0" /><path
       d="m 145.52342,59.276852 3.153,0 0,0.515 -3.153,0 0,-0.515 z"
       style="fill:#cccccc;fill-opacity:1;fill-rule:evenodd;stroke:none"
       id="path460"
       inkscape:connector-curvature="0" /><path
       d="m 145.52342,58.391852 3.153,0 0,0.515 -3.153,0 0,-0.515 z"
       style="fill:#cccccc;fill-opacity:1;fill-rule:evenodd;stroke:none"
       id="path462"
       inkscape:connector-curvature="0" /><path
       d="m 145.52342,57.506852 1.996,0 0,0.515 -1.996,0 0,-0.515 z"
       style="fill:#cccccc;fill-opacity:1;fill-rule:evenodd;stroke:none"
       id="path464"
       inkscape:connector-curvature="0" /><path
       d="m 149.46442,60.161852 3.154,0 0,0.515 -3.154,0 0,-0.515 z"
       style="fill:#cccccc;fill-opacity:1;fill-rule:evenodd;stroke:none"
       id="path466"
       inkscape:connector-curvature="0" /><path
       d="m 149.46442,59.276852 3.154,0 0,0.515 -3.154,0 0,-0.515 z"
       style="fill:#cccccc;fill-opacity:1;fill-rule:evenodd;stroke:none"
       id="path468"
       inkscape:connector-curvature="0" /><path
       d="m 149.46442,58.391852 3.154,0 0,0.515 -3.154,0 0,-0.515 z"
       style="fill:#cccccc;fill-opacity:1;fill-rule:evenodd;stroke:none"
       id="path470"
       inkscape:connector-curvature="0" /><path
       d="m 149.46442,57.506852 1.997,0 0,0.515 -1.997,0 0,-0.515 z"
       style="fill:#cccccc;fill-opacity:1;fill-rule:evenodd;stroke:none"
       id="path472"
       inkscape:connector-curvature="0" /><path
       d="m 153.40742,60.161852 3.153,0 0,0.515 -3.153,0 0,-0.515 z"
       style="fill:#cccccc;fill-opacity:1;fill-rule:evenodd;stroke:none"
       id="path474"
       inkscape:connector-curvature="0" /><path
       d="m 153.40742,59.276852 3.153,0 0,0.515 -3.153,0 0,-0.515 z"
       style="fill:#cccccc;fill-opacity:1;fill-rule:evenodd;stroke:none"
       id="path476"
       inkscape:connector-curvature="0" /><path
       d="m 153.40742,58.391852 3.153,0 0,0.515 -3.153,0 0,-0.515 z"
       style="fill:#cccccc;fill-opacity:1;fill-rule:evenodd;stroke:none"
       id="path478"
       inkscape:connector-curvature="0" /><path
       d="m 153.40742,57.506852 1.996,0 0,0.515 -1.996,0 0,-0.515 z"
       style="fill:#cccccc;fill-opacity:1;fill-rule:evenodd;stroke:none"
       id="path480"
       inkscape:connector-curvature="0" /><path
       d="m 145.52342,53.839852 11.037,0 0,2.737 -11.037,0 0,-2.737 z"
       style="fill:#91bde3;fill-opacity:1;fill-rule:evenodd;stroke:none"
       id="path482"
       inkscape:connector-curvature="0" /><path
       d="m 145.52342,52.669852 11.037,0 0,0.515 -11.037,0 0,-0.515 z"
       style="fill:#91bde3;fill-opacity:1;fill-rule:evenodd;stroke:none"
       id="path484"
       inkscape:connector-curvature="0" /><path
       d="m 145.52342,51.809852 5.519,0 0,0.515 -5.519,0 0,-0.515 z"
       style="fill:#91bde3;fill-opacity:1;fill-rule:evenodd;stroke:none"
       id="path486"
       inkscape:connector-curvature="0" /><g
       id="g488"
       transform="translate(156.59562,66.360752)"><path
         d="m 0,0 c -0.037,0.046 -0.029,0.115 0.018,0.151 0.045,0.038 0.114,0.03 0.151,-0.017 l 0.279,-0.35 c 0.003,-0.003 0.005,-0.007 0.007,-0.009 l 0,-0.001 0.003,-0.004 0.003,-0.005 0,0 0.002,-0.004 0.001,-0.003 c 0.002,-0.003 0.003,-0.007 0.004,-0.011 l 10e-4,-0.001 c 0.001,-0.005 0.002,-0.01 0.003,-0.015 l 0,-0.001 c 0,-0.003 0.001,-0.007 0.001,-0.011 l 0,-0.002 0,-0.002 0,-0.002 c 0,-0.004 -0.001,-0.008 -0.001,-0.011 l 0,-0.001 C 0.471,-0.304 0.47,-0.309 0.469,-0.314 L 0.468,-0.315 C 0.467,-0.319 0.466,-0.322 0.464,-0.327 l -0.001,-0.002 -0.002,-0.004 0,-0.001 -0.003,-0.003 -0.003,-0.005 0,0 C 0.453,-0.346 0.451,-0.349 0.448,-0.352 L 0.169,-0.703 C 0.132,-0.749 0.063,-0.757 0.018,-0.72 -0.029,-0.683 -0.037,-0.615 0,-0.568 L 0.227,-0.284 0,0 z"
         style="fill:#ffffff;fill-opacity:1;fill-rule:nonzero;stroke:none"
         id="path490"
         inkscape:connector-curvature="0" /></g><g
       id="g492"
       transform="translate(145.31922,66.495052)"><path
         d="M 0,0 C 0.037,0.047 0.105,0.055 0.151,0.017 0.198,-0.02 0.206,-0.088 0.169,-0.134 L -0.058,-0.418 0.169,-0.702 C 0.206,-0.749 0.198,-0.817 0.151,-0.854 0.105,-0.891 0.037,-0.883 0,-0.837 l -0.279,0.351 c -0.003,0.003 -0.005,0.006 -0.008,0.009 l 0,0.001 -0.002,0.004 -0.003,0.004 0,0.001 -0.002,0.004 -0.001,0.002 c -0.002,0.004 -0.003,0.008 -0.004,0.011 L -0.3,-0.448 c -0.001,0.005 -0.002,0.01 -0.003,0.015 l 0,0 c -0.001,0.004 -0.001,0.008 -0.001,0.012 l 0,0.002 0,0.002 0,0.002 c 0,0.003 0,0.007 0.001,0.011 l 0,0.001 c 0.001,0.005 0.002,0.01 0.003,0.015 l 0.001,0.001 c 0.001,0.004 0.002,0.008 0.004,0.011 l 0.001,0.002 0.002,0.004 0,0.001 0.003,0.004 0.002,0.005 0,0.001 c 0.003,0.002 0.005,0.005 0.008,0.009 L 0,0 z"
         style="fill:#ffffff;fill-opacity:1;fill-rule:nonzero;stroke:none"
         id="path494"
         inkscape:connector-curvature="0" /></g></g></svg>